<?xml version="1.0" encoding="UTF-8"?>
<svg xmlns="http://www.w3.org/2000/svg" xmlns:xlink="http://www.w3.org/1999/xlink" width="432pt" height="266pt" viewBox="0 0 432 266">
<defs>
<g>
<g id="glyph-0-0">
<path d="M 4.171875 0 L 3.1875 0 L 3.1875 -6.273438 C 2.949219 -6.042969 2.636719 -5.816406 2.253906 -5.59375 C 1.867188 -5.363281 1.523438 -5.195312 1.21875 -5.085938 L 1.21875 -6.039062 C 1.769531 -6.292969 2.25 -6.605469 2.664062 -6.976562 C 3.074219 -7.34375 3.367188 -7.703125 3.539062 -8.050781 L 4.171875 -8.050781 Z M 4.171875 0 "/>
</g>
<g id="glyph-0-1">
<path d="M 0.464844 -3.953125 C 0.460938 -4.898438 0.558594 -5.660156 0.757812 -6.242188 C 0.949219 -6.816406 1.238281 -7.261719 1.625 -7.578125 C 2.007812 -7.890625 2.492188 -8.050781 3.078125 -8.050781 C 3.503906 -8.050781 3.882812 -7.960938 4.210938 -7.789062 C 4.535156 -7.613281 4.804688 -7.363281 5.015625 -7.039062 C 5.226562 -6.710938 5.390625 -6.316406 5.511719 -5.847656 C 5.628906 -5.378906 5.6875 -4.746094 5.691406 -3.953125 C 5.6875 -3.011719 5.59375 -2.253906 5.402344 -1.675781 C 5.207031 -1.097656 4.917969 -0.648438 4.535156 -0.335938 C 4.152344 -0.0195312 3.664062 0.132812 3.078125 0.136719 C 2.300781 0.132812 1.695312 -0.140625 1.257812 -0.695312 C 0.726562 -1.359375 0.460938 -2.445312 0.464844 -3.953125 Z M 1.476562 -3.953125 C 1.476562 -2.636719 1.628906 -1.761719 1.9375 -1.324219 C 2.246094 -0.886719 2.625 -0.667969 3.078125 -0.671875 C 3.527344 -0.667969 3.910156 -0.886719 4.21875 -1.328125 C 4.523438 -1.761719 4.675781 -2.636719 4.679688 -3.953125 C 4.675781 -5.269531 4.523438 -6.144531 4.21875 -6.582031 C 3.910156 -7.011719 3.523438 -7.230469 3.066406 -7.234375 C 2.613281 -7.230469 2.253906 -7.039062 1.984375 -6.660156 C 1.644531 -6.171875 1.476562 -5.269531 1.476562 -3.953125 Z M 1.476562 -3.953125 "/>
</g>
<g id="glyph-0-2">
<path d="M 0.464844 -2.101562 L 1.5 -2.1875 C 1.574219 -1.679688 1.75 -1.300781 2.03125 -1.050781 C 2.308594 -0.792969 2.644531 -0.667969 3.039062 -0.671875 C 3.511719 -0.667969 3.914062 -0.847656 4.242188 -1.207031 C 4.570312 -1.566406 4.734375 -2.039062 4.734375 -2.628906 C 4.734375 -3.1875 4.574219 -3.628906 4.261719 -3.957031 C 3.941406 -4.277344 3.53125 -4.441406 3.023438 -4.445312 C 2.703125 -4.441406 2.414062 -4.371094 2.164062 -4.230469 C 1.90625 -4.085938 1.707031 -3.898438 1.5625 -3.667969 L 0.640625 -3.789062 L 1.417969 -7.90625 L 5.402344 -7.90625 L 5.402344 -6.96875 L 2.203125 -6.96875 L 1.773438 -4.8125 C 2.25 -5.144531 2.753906 -5.3125 3.285156 -5.316406 C 3.984375 -5.3125 4.574219 -5.070312 5.058594 -4.585938 C 5.535156 -4.097656 5.777344 -3.476562 5.78125 -2.71875 C 5.777344 -1.992188 5.566406 -1.363281 5.144531 -0.835938 C 4.628906 -0.1875 3.925781 0.132812 3.039062 0.136719 C 2.308594 0.132812 1.714844 -0.0664062 1.253906 -0.476562 C 0.792969 -0.882812 0.527344 -1.425781 0.464844 -2.101562 Z M 0.464844 -2.101562 "/>
</g>
<g id="glyph-0-3">
<path d="M 5.636719 -0.945312 L 5.636719 0 L 0.339844 0 C 0.332031 -0.234375 0.367188 -0.460938 0.453125 -0.683594 C 0.585938 -1.042969 0.804688 -1.398438 1.101562 -1.75 C 1.398438 -2.097656 1.828125 -2.503906 2.390625 -2.964844 C 3.257812 -3.675781 3.84375 -4.238281 4.15625 -4.660156 C 4.460938 -5.074219 4.617188 -5.472656 4.617188 -5.847656 C 4.617188 -6.234375 4.476562 -6.5625 4.195312 -6.832031 C 3.914062 -7.097656 3.550781 -7.230469 3.105469 -7.234375 C 2.628906 -7.230469 2.25 -7.089844 1.96875 -6.808594 C 1.683594 -6.523438 1.539062 -6.128906 1.535156 -5.628906 L 0.523438 -5.730469 C 0.589844 -6.484375 0.851562 -7.058594 1.304688 -7.457031 C 1.753906 -7.851562 2.363281 -8.050781 3.128906 -8.050781 C 3.894531 -8.050781 4.5 -7.835938 4.953125 -7.410156 C 5.398438 -6.980469 5.625 -6.453125 5.628906 -5.824219 C 5.625 -5.503906 5.558594 -5.1875 5.429688 -4.878906 C 5.296875 -4.566406 5.078125 -4.238281 4.777344 -3.898438 C 4.46875 -3.554688 3.964844 -3.085938 3.257812 -2.488281 C 2.667969 -1.992188 2.289062 -1.65625 2.121094 -1.480469 C 1.953125 -1.300781 1.8125 -1.121094 1.707031 -0.945312 Z M 5.636719 -0.945312 "/>
</g>
<g id="glyph-0-4">
<path d="M 3.621094 0 L 3.621094 -1.917969 L 0.140625 -1.917969 L 0.140625 -2.820312 L 3.800781 -8.015625 L 4.605469 -8.015625 L 4.605469 -2.820312 L 5.6875 -2.820312 L 5.6875 -1.917969 L 4.605469 -1.917969 L 4.605469 0 Z M 3.621094 -2.820312 L 3.621094 -6.4375 L 1.109375 -2.820312 Z M 3.621094 -2.820312 "/>
</g>
<g id="glyph-0-5">
<path d="M 5.574219 -6.054688 L 4.59375 -5.976562 C 4.503906 -6.363281 4.378906 -6.644531 4.222656 -6.820312 C 3.953125 -7.101562 3.625 -7.242188 3.238281 -7.242188 C 2.921875 -7.242188 2.644531 -7.152344 2.410156 -6.976562 C 2.097656 -6.75 1.855469 -6.421875 1.675781 -5.988281 C 1.496094 -5.550781 1.402344 -4.929688 1.398438 -4.132812 C 1.632812 -4.492188 1.921875 -4.761719 2.269531 -4.9375 C 2.609375 -5.109375 2.96875 -5.195312 3.347656 -5.199219 C 4 -5.195312 4.558594 -4.953125 5.023438 -4.472656 C 5.480469 -3.988281 5.710938 -3.367188 5.714844 -2.601562 C 5.710938 -2.097656 5.601562 -1.628906 5.386719 -1.199219 C 5.167969 -0.765625 4.871094 -0.433594 4.492188 -0.207031 C 4.113281 0.0234375 3.683594 0.132812 3.203125 0.136719 C 2.378906 0.132812 1.710938 -0.164062 1.195312 -0.765625 C 0.679688 -1.367188 0.421875 -2.363281 0.421875 -3.75 C 0.421875 -5.296875 0.707031 -6.421875 1.28125 -7.132812 C 1.777344 -7.742188 2.449219 -8.050781 3.296875 -8.050781 C 3.925781 -8.050781 4.441406 -7.871094 4.847656 -7.519531 C 5.246094 -7.160156 5.488281 -6.671875 5.574219 -6.054688 Z M 1.554688 -2.597656 C 1.550781 -2.253906 1.625 -1.929688 1.769531 -1.625 C 1.910156 -1.3125 2.109375 -1.078125 2.371094 -0.914062 C 2.628906 -0.75 2.902344 -0.667969 3.1875 -0.671875 C 3.601562 -0.667969 3.957031 -0.835938 4.257812 -1.175781 C 4.554688 -1.507812 4.703125 -1.964844 4.707031 -2.542969 C 4.703125 -3.097656 4.558594 -3.53125 4.265625 -3.851562 C 3.96875 -4.167969 3.59375 -4.328125 3.148438 -4.332031 C 2.703125 -4.328125 2.328125 -4.167969 2.019531 -3.851562 C 1.707031 -3.53125 1.550781 -3.113281 1.554688 -2.597656 Z M 1.554688 -2.597656 "/>
</g>
<g id="glyph-1-0">
<path d="M 1.078125 0 L 1.078125 -10.023438 L 4.859375 -10.023438 C 5.523438 -10.019531 6.03125 -9.988281 6.382812 -9.925781 C 6.875 -9.84375 7.289062 -9.6875 7.621094 -9.457031 C 7.953125 -9.226562 8.222656 -8.902344 8.425781 -8.488281 C 8.628906 -8.070312 8.730469 -7.617188 8.730469 -7.125 C 8.730469 -6.269531 8.457031 -5.546875 7.914062 -4.957031 C 7.371094 -4.367188 6.390625 -4.070312 4.976562 -4.074219 L 2.40625 -4.074219 L 2.40625 0 Z M 2.40625 -5.257812 L 4.996094 -5.257812 C 5.851562 -5.253906 6.460938 -5.414062 6.820312 -5.734375 C 7.179688 -6.050781 7.359375 -6.5 7.363281 -7.082031 C 7.359375 -7.5 7.253906 -7.859375 7.042969 -8.15625 C 6.832031 -8.453125 6.550781 -8.648438 6.207031 -8.75 C 5.980469 -8.804688 5.570312 -8.835938 4.96875 -8.839844 L 2.40625 -8.839844 Z M 2.40625 -5.257812 "/>
</g>
<g id="glyph-1-1">
<path d="M 0.910156 0 L 0.910156 -7.257812 L 2.015625 -7.257812 L 2.015625 -6.160156 C 2.296875 -6.667969 2.554688 -7.007812 2.796875 -7.175781 C 3.03125 -7.335938 3.296875 -7.417969 3.589844 -7.421875 C 4 -7.417969 4.421875 -7.285156 4.851562 -7.027344 L 4.429688 -5.886719 C 4.125 -6.0625 3.824219 -6.152344 3.527344 -6.152344 C 3.257812 -6.152344 3.015625 -6.070312 2.800781 -5.910156 C 2.585938 -5.746094 2.433594 -5.519531 2.34375 -5.234375 C 2.207031 -4.792969 2.136719 -4.316406 2.140625 -3.800781 L 2.140625 0 Z M 0.910156 0 "/>
</g>
<g id="glyph-1-2">
<path d="M 0.929688 -8.605469 L 0.929688 -10.023438 L 2.160156 -10.023438 L 2.160156 -8.605469 Z M 0.929688 0 L 0.929688 -7.257812 L 2.160156 -7.257812 L 2.160156 0 Z M 0.929688 0 "/>
</g>
<g id="glyph-1-3">
<path d="M 5.660156 -2.660156 L 6.871094 -2.5 C 6.734375 -1.664062 6.394531 -1.011719 5.855469 -0.542969 C 5.308594 -0.0703125 4.640625 0.164062 3.847656 0.164062 C 2.851562 0.164062 2.054688 -0.160156 1.453125 -0.808594 C 0.847656 -1.457031 0.542969 -2.386719 0.546875 -3.601562 C 0.542969 -4.382812 0.675781 -5.070312 0.9375 -5.660156 C 1.195312 -6.246094 1.589844 -6.683594 2.121094 -6.980469 C 2.652344 -7.269531 3.230469 -7.417969 3.855469 -7.421875 C 4.644531 -7.417969 5.289062 -7.21875 5.789062 -6.824219 C 6.289062 -6.421875 6.609375 -5.855469 6.753906 -5.125 L 5.558594 -4.941406 C 5.441406 -5.425781 5.238281 -5.792969 4.953125 -6.042969 C 4.660156 -6.285156 4.3125 -6.410156 3.902344 -6.414062 C 3.28125 -6.410156 2.777344 -6.1875 2.390625 -5.746094 C 2.003906 -5.296875 1.808594 -4.59375 1.8125 -3.636719 C 1.808594 -2.65625 1.996094 -1.945312 2.371094 -1.507812 C 2.742188 -1.0625 3.230469 -0.84375 3.835938 -0.847656 C 4.316406 -0.84375 4.71875 -0.992188 5.042969 -1.289062 C 5.367188 -1.585938 5.574219 -2.042969 5.660156 -2.660156 Z M 5.660156 -2.660156 "/>
</g>
<g id="glyph-1-4">
<path d="M 5.890625 -2.335938 L 7.164062 -2.179688 C 6.960938 -1.4375 6.589844 -0.859375 6.046875 -0.449219 C 5.503906 -0.0390625 4.8125 0.164062 3.972656 0.164062 C 2.910156 0.164062 2.066406 -0.160156 1.445312 -0.816406 C 0.820312 -1.464844 0.507812 -2.382812 0.511719 -3.570312 C 0.507812 -4.785156 0.824219 -5.734375 1.453125 -6.410156 C 2.082031 -7.082031 2.898438 -7.417969 3.902344 -7.421875 C 4.871094 -7.417969 5.664062 -7.085938 6.28125 -6.429688 C 6.894531 -5.765625 7.199219 -4.839844 7.203125 -3.644531 C 7.199219 -3.570312 7.199219 -3.460938 7.199219 -3.316406 L 1.785156 -3.316406 C 1.828125 -2.515625 2.054688 -1.902344 2.460938 -1.480469 C 2.867188 -1.054688 3.371094 -0.84375 3.976562 -0.847656 C 4.425781 -0.84375 4.8125 -0.960938 5.132812 -1.203125 C 5.453125 -1.4375 5.703125 -1.816406 5.890625 -2.335938 Z M 1.851562 -4.328125 L 5.90625 -4.328125 C 5.851562 -4.933594 5.695312 -5.390625 5.441406 -5.703125 C 5.046875 -6.171875 4.539062 -6.410156 3.917969 -6.414062 C 3.351562 -6.410156 2.875 -6.21875 2.492188 -5.84375 C 2.101562 -5.460938 1.890625 -4.957031 1.851562 -4.328125 Z M 1.851562 -4.328125 "/>
</g>
<g id="glyph-2-0">
<path d="M 0 -1.148438 L -10.023438 -1.148438 L -10.023438 -7.910156 L -8.839844 -7.910156 L -8.839844 -2.476562 L -5.734375 -2.476562 L -5.734375 -7.179688 L -4.554688 -7.179688 L -4.554688 -2.476562 L 0 -2.476562 Z M 0 -1.148438 "/>
</g>
<g id="glyph-2-1">
<path d="M 0 -5.679688 L -1.066406 -5.679688 C -0.246094 -5.109375 0.164062 -4.34375 0.164062 -3.375 C 0.164062 -2.945312 0.0820312 -2.542969 -0.0820312 -2.175781 C -0.246094 -1.800781 -0.449219 -1.527344 -0.699219 -1.347656 C -0.945312 -1.167969 -1.25 -1.042969 -1.613281 -0.972656 C -1.851562 -0.917969 -2.234375 -0.890625 -2.761719 -0.894531 L -7.257812 -0.894531 L -7.257812 -2.125 L -3.234375 -2.125 C -2.589844 -2.121094 -2.15625 -2.148438 -1.933594 -2.203125 C -1.609375 -2.277344 -1.355469 -2.4375 -1.171875 -2.691406 C -0.984375 -2.941406 -0.890625 -3.253906 -0.894531 -3.625 C -0.890625 -3.988281 -0.984375 -4.332031 -1.175781 -4.660156 C -1.363281 -4.980469 -1.621094 -5.210938 -1.949219 -5.347656 C -2.273438 -5.480469 -2.746094 -5.546875 -3.371094 -5.550781 L -7.257812 -5.550781 L -7.257812 -6.78125 L 0 -6.78125 Z M 0 -5.679688 "/>
</g>
<g id="glyph-2-2">
<path d="M -2.335938 -5.890625 L -2.179688 -7.164062 C -1.4375 -6.960938 -0.859375 -6.589844 -0.449219 -6.046875 C -0.0390625 -5.503906 0.164062 -4.8125 0.164062 -3.972656 C 0.164062 -2.910156 -0.160156 -2.066406 -0.816406 -1.445312 C -1.464844 -0.820312 -2.382812 -0.507812 -3.570312 -0.511719 C -4.785156 -0.507812 -5.734375 -0.824219 -6.410156 -1.453125 C -7.082031 -2.082031 -7.417969 -2.898438 -7.421875 -3.902344 C -7.417969 -4.871094 -7.085938 -5.664062 -6.429688 -6.28125 C -5.765625 -6.894531 -4.839844 -7.199219 -3.644531 -7.203125 C -3.570312 -7.199219 -3.460938 -7.199219 -3.316406 -7.199219 L -3.316406 -1.785156 C -2.515625 -1.828125 -1.902344 -2.054688 -1.480469 -2.460938 C -1.054688 -2.867188 -0.84375 -3.371094 -0.847656 -3.976562 C -0.84375 -4.425781 -0.960938 -4.8125 -1.203125 -5.132812 C -1.4375 -5.453125 -1.816406 -5.703125 -2.335938 -5.890625 Z M -4.328125 -1.851562 L -4.328125 -5.90625 C -4.933594 -5.851562 -5.390625 -5.695312 -5.703125 -5.441406 C -6.171875 -5.046875 -6.410156 -4.539062 -6.414062 -3.917969 C -6.410156 -3.351562 -6.21875 -2.875 -5.84375 -2.492188 C -5.460938 -2.101562 -4.957031 -1.890625 -4.328125 -1.851562 Z M -4.328125 -1.851562 "/>
</g>
<g id="glyph-2-3">
<path d="M 0 -0.894531 L -10.023438 -0.894531 L -10.023438 -2.125 L 0 -2.125 Z M 0 -0.894531 "/>
</g>
<g id="glyph-2-4">
<path d="M 0 -1.273438 L -1.402344 -1.273438 L -1.402344 -2.671875 L 0 -2.671875 Z M 0 -1.273438 "/>
</g>
<g id="glyph-2-5">
<path d="M -1.101562 -3.609375 L -0.0117188 -3.789062 C 0.0585938 -3.4375 0.09375 -3.128906 0.0976562 -2.859375 C 0.09375 -2.410156 0.0273438 -2.0625 -0.113281 -1.816406 C -0.253906 -1.570312 -0.441406 -1.394531 -0.671875 -1.296875 C -0.902344 -1.195312 -1.386719 -1.148438 -2.125 -1.148438 L -6.304688 -1.148438 L -6.304688 -0.246094 L -7.257812 -0.246094 L -7.257812 -1.148438 L -9.058594 -1.148438 L -9.796875 -2.371094 L -7.257812 -2.371094 L -7.257812 -3.609375 L -6.304688 -3.609375 L -6.304688 -2.371094 L -2.058594 -2.371094 C -1.703125 -2.367188 -1.476562 -2.386719 -1.378906 -2.433594 C -1.277344 -2.472656 -1.199219 -2.546875 -1.140625 -2.648438 C -1.078125 -2.746094 -1.046875 -2.886719 -1.050781 -3.070312 C -1.046875 -3.203125 -1.066406 -3.382812 -1.101562 -3.609375 Z M -1.101562 -3.609375 "/>
</g>
<g id="glyph-2-6">
<path d="M -0.894531 -5.660156 C -0.503906 -5.203125 -0.230469 -4.761719 -0.0742188 -4.34375 C 0.0859375 -3.917969 0.164062 -3.46875 0.164062 -2.988281 C 0.164062 -2.1875 -0.0273438 -1.574219 -0.417969 -1.148438 C -0.804688 -0.71875 -1.304688 -0.503906 -1.914062 -0.507812 C -2.265625 -0.503906 -2.589844 -0.585938 -2.886719 -0.75 C -3.179688 -0.910156 -3.414062 -1.121094 -3.59375 -1.382812 C -3.769531 -1.644531 -3.90625 -1.9375 -4 -2.269531 C -4.058594 -2.507812 -4.121094 -2.875 -4.183594 -3.363281 C -4.300781 -4.355469 -4.441406 -5.085938 -4.609375 -5.558594 C -4.773438 -5.558594 -4.878906 -5.558594 -4.929688 -5.5625 C -5.425781 -5.558594 -5.78125 -5.445312 -5.988281 -5.214844 C -6.265625 -4.898438 -6.402344 -4.429688 -6.40625 -3.816406 C -6.402344 -3.230469 -6.300781 -2.804688 -6.101562 -2.53125 C -5.894531 -2.257812 -5.535156 -2.054688 -5.023438 -1.921875 L -5.1875 -0.71875 C -5.699219 -0.824219 -6.117188 -1.003906 -6.433594 -1.257812 C -6.75 -1.503906 -6.992188 -1.867188 -7.164062 -2.34375 C -7.332031 -2.816406 -7.417969 -3.363281 -7.421875 -3.992188 C -7.417969 -4.609375 -7.34375 -5.113281 -7.203125 -5.503906 C -7.054688 -5.886719 -6.871094 -6.171875 -6.652344 -6.359375 C -6.429688 -6.539062 -6.152344 -6.667969 -5.816406 -6.742188 C -5.605469 -6.777344 -5.226562 -6.796875 -4.683594 -6.800781 L -3.042969 -6.800781 C -1.894531 -6.796875 -1.171875 -6.824219 -0.871094 -6.878906 C -0.566406 -6.933594 -0.277344 -7.035156 0 -7.191406 L 0 -5.90625 C -0.253906 -5.777344 -0.550781 -5.695312 -0.894531 -5.660156 Z M -3.644531 -5.558594 C -3.460938 -5.109375 -3.304688 -4.4375 -3.179688 -3.546875 C -3.105469 -3.039062 -3.023438 -2.683594 -2.933594 -2.472656 C -2.839844 -2.261719 -2.707031 -2.097656 -2.53125 -1.988281 C -2.355469 -1.871094 -2.160156 -1.816406 -1.949219 -1.820312 C -1.617188 -1.816406 -1.34375 -1.941406 -1.128906 -2.191406 C -0.90625 -2.4375 -0.796875 -2.800781 -0.800781 -3.28125 C -0.796875 -3.753906 -0.898438 -4.175781 -1.109375 -4.546875 C -1.3125 -4.914062 -1.597656 -5.183594 -1.960938 -5.359375 C -2.238281 -5.488281 -2.648438 -5.554688 -3.191406 -5.558594 Z M -3.644531 -5.558594 "/>
</g>
<g id="glyph-2-7">
<path d="M 0 -0.921875 L -7.257812 -0.921875 L -7.257812 -2.03125 L -6.226562 -2.03125 C -7.019531 -2.5625 -7.417969 -3.332031 -7.421875 -4.339844 C -7.417969 -4.773438 -7.339844 -5.175781 -7.1875 -5.546875 C -7.027344 -5.910156 -6.820312 -6.183594 -6.570312 -6.371094 C -6.3125 -6.550781 -6.011719 -6.679688 -5.660156 -6.753906 C -5.433594 -6.796875 -5.035156 -6.820312 -4.464844 -6.820312 L 0 -6.820312 L 0 -5.59375 L -4.414062 -5.59375 C -4.914062 -5.589844 -5.289062 -5.542969 -5.539062 -5.449219 C -5.785156 -5.351562 -5.984375 -5.179688 -6.136719 -4.9375 C -6.28125 -4.691406 -6.355469 -4.40625 -6.359375 -4.082031 C -6.355469 -3.554688 -6.191406 -3.101562 -5.859375 -2.722656 C -5.523438 -2.339844 -4.890625 -2.148438 -3.964844 -2.152344 L 0 -2.152344 Z M 0 -0.921875 "/>
</g>
<g id="glyph-2-8">
<path d="M 0 -0.929688 L -10.023438 -0.929688 L -10.023438 -2.160156 L -4.304688 -2.160156 L -7.257812 -5.074219 L -7.257812 -6.664062 L -4.566406 -3.890625 L 0 -6.945312 L 0 -5.429688 L -3.710938 -3.027344 L -2.878906 -2.160156 L 0 -2.160156 Z M 0 -0.929688 "/>
</g>
<g id="glyph-2-9">
<path d="M -2.660156 -5.660156 L -2.5 -6.871094 C -1.664062 -6.734375 -1.011719 -6.394531 -0.542969 -5.855469 C -0.0703125 -5.308594 0.164062 -4.640625 0.164062 -3.847656 C 0.164062 -2.851562 -0.160156 -2.054688 -0.808594 -1.453125 C -1.457031 -0.847656 -2.386719 -0.542969 -3.601562 -0.546875 C -4.382812 -0.542969 -5.070312 -0.675781 -5.660156 -0.9375 C -6.246094 -1.195312 -6.683594 -1.589844 -6.980469 -2.121094 C -7.269531 -2.652344 -7.417969 -3.230469 -7.421875 -3.855469 C -7.417969 -4.644531 -7.21875 -5.289062 -6.824219 -5.789062 C -6.421875 -6.289062 -5.855469 -6.609375 -5.125 -6.753906 L -4.941406 -5.558594 C -5.425781 -5.441406 -5.792969 -5.238281 -6.042969 -4.953125 C -6.285156 -4.660156 -6.410156 -4.3125 -6.414062 -3.902344 C -6.410156 -3.28125 -6.1875 -2.777344 -5.746094 -2.390625 C -5.296875 -2.003906 -4.59375 -1.808594 -3.636719 -1.8125 C -2.65625 -1.808594 -1.945312 -1.996094 -1.507812 -2.371094 C -1.0625 -2.742188 -0.84375 -3.230469 -0.847656 -3.835938 C -0.84375 -4.316406 -0.992188 -4.71875 -1.289062 -5.042969 C -1.585938 -5.367188 -2.042969 -5.574219 -2.660156 -5.660156 Z M -2.660156 -5.660156 "/>
</g>
<g id="glyph-2-10">
<path d="M 2.78125 -0.921875 L -7.257812 -0.921875 L -7.257812 -2.042969 L -6.316406 -2.042969 C -6.683594 -2.304688 -6.957031 -2.601562 -7.144531 -2.9375 C -7.324219 -3.265625 -7.417969 -3.671875 -7.421875 -4.148438 C -7.417969 -4.765625 -7.257812 -5.3125 -6.945312 -5.789062 C -6.625 -6.261719 -6.175781 -6.617188 -5.59375 -6.863281 C -5.011719 -7.101562 -4.375 -7.222656 -3.683594 -7.226562 C -2.9375 -7.222656 -2.269531 -7.089844 -1.675781 -6.824219 C -1.082031 -6.554688 -0.625 -6.167969 -0.308594 -5.664062 C 0.0078125 -5.152344 0.164062 -4.617188 0.164062 -4.0625 C 0.164062 -3.648438 0.078125 -3.28125 -0.09375 -2.957031 C -0.265625 -2.628906 -0.484375 -2.359375 -0.75 -2.152344 L 2.78125 -2.152344 Z M -3.589844 -2.039062 C -2.652344 -2.039062 -1.960938 -2.226562 -1.515625 -2.605469 C -1.066406 -2.980469 -0.84375 -3.4375 -0.847656 -3.976562 C -0.84375 -4.519531 -1.074219 -4.988281 -1.539062 -5.382812 C -2 -5.769531 -2.71875 -5.964844 -3.691406 -5.96875 C -4.613281 -5.964844 -5.304688 -5.773438 -5.769531 -5.398438 C -6.226562 -5.015625 -6.457031 -4.5625 -6.460938 -4.03125 C -6.457031 -3.507812 -6.210938 -3.042969 -5.726562 -2.640625 C -5.234375 -2.238281 -4.523438 -2.039062 -3.589844 -2.039062 Z M -3.589844 -2.039062 "/>
</g>
<g id="glyph-2-11">
<path d="M -8.605469 -0.929688 L -10.023438 -0.929688 L -10.023438 -2.160156 L -8.605469 -2.160156 Z M 0 -0.929688 L -7.257812 -0.929688 L -7.257812 -2.160156 L 0 -2.160156 Z M 0 -0.929688 "/>
</g>
<g id="glyph-2-12">
<path d="M 2.796875 -0.867188 L 1.640625 -0.730469 C 1.710938 -0.996094 1.746094 -1.230469 1.75 -1.4375 C 1.746094 -1.703125 1.699219 -1.921875 1.613281 -2.089844 C 1.519531 -2.25 1.394531 -2.386719 1.230469 -2.496094 C 1.105469 -2.570312 0.800781 -2.695312 0.316406 -2.871094 C 0.246094 -2.894531 0.144531 -2.929688 0.015625 -2.980469 L -7.257812 -0.226562 L -7.257812 -1.550781 L -3.054688 -3.0625 C -2.519531 -3.253906 -1.960938 -3.429688 -1.375 -3.589844 C -1.9375 -3.726562 -2.488281 -3.894531 -3.027344 -4.09375 L -7.257812 -5.648438 L -7.257812 -6.878906 L 0.125 -4.117188 C 0.917969 -3.816406 1.46875 -3.585938 1.769531 -3.425781 C 2.175781 -3.203125 2.472656 -2.953125 2.660156 -2.671875 C 2.847656 -2.390625 2.941406 -2.050781 2.945312 -1.660156 C 2.941406 -1.417969 2.890625 -1.15625 2.796875 -0.867188 Z M 2.796875 -0.867188 "/>
</g>
</g>
<clipPath id="clip-0">
<path clip-rule="nonzero" d="M 42.164062 6.972656 L 425.027344 6.972656 L 425.027344 225.917969 L 42.164062 225.917969 Z M 42.164062 6.972656 "/>
</clipPath>
<clipPath id="clip-1">
<path clip-rule="nonzero" d="M 42.164062 180 L 425.027344 180 L 425.027344 182 L 42.164062 182 Z M 42.164062 180 "/>
</clipPath>
<clipPath id="clip-2">
<path clip-rule="nonzero" d="M 42.164062 127 L 425.027344 127 L 425.027344 129 L 42.164062 129 Z M 42.164062 127 "/>
</clipPath>
<clipPath id="clip-3">
<path clip-rule="nonzero" d="M 42.164062 74 L 425.027344 74 L 425.027344 76 L 42.164062 76 Z M 42.164062 74 "/>
</clipPath>
<clipPath id="clip-4">
<path clip-rule="nonzero" d="M 42.164062 21 L 425.027344 21 L 425.027344 23 L 42.164062 23 Z M 42.164062 21 "/>
</clipPath>
<clipPath id="clip-5">
<path clip-rule="nonzero" d="M 75 6.972656 L 77 6.972656 L 77 225.917969 L 75 225.917969 Z M 75 6.972656 "/>
</clipPath>
<clipPath id="clip-6">
<path clip-rule="nonzero" d="M 203 6.972656 L 205 6.972656 L 205 225.917969 L 203 225.917969 Z M 203 6.972656 "/>
</clipPath>
<clipPath id="clip-7">
<path clip-rule="nonzero" d="M 331 6.972656 L 332 6.972656 L 332 225.917969 L 331 225.917969 Z M 331 6.972656 "/>
</clipPath>
<clipPath id="clip-8">
<path clip-rule="nonzero" d="M 42.164062 206 L 425.027344 206 L 425.027344 209 L 42.164062 209 Z M 42.164062 206 "/>
</clipPath>
<clipPath id="clip-9">
<path clip-rule="nonzero" d="M 42.164062 153 L 425.027344 153 L 425.027344 156 L 42.164062 156 Z M 42.164062 153 "/>
</clipPath>
<clipPath id="clip-10">
<path clip-rule="nonzero" d="M 42.164062 100 L 425.027344 100 L 425.027344 103 L 42.164062 103 Z M 42.164062 100 "/>
</clipPath>
<clipPath id="clip-11">
<path clip-rule="nonzero" d="M 42.164062 47 L 425.027344 47 L 425.027344 50 L 42.164062 50 Z M 42.164062 47 "/>
</clipPath>
<clipPath id="clip-12">
<path clip-rule="nonzero" d="M 139 6.972656 L 141 6.972656 L 141 225.917969 L 139 225.917969 Z M 139 6.972656 "/>
</clipPath>
<clipPath id="clip-13">
<path clip-rule="nonzero" d="M 267 6.972656 L 269 6.972656 L 269 225.917969 L 267 225.917969 Z M 267 6.972656 "/>
</clipPath>
<clipPath id="clip-14">
<path clip-rule="nonzero" d="M 394 6.972656 L 397 6.972656 L 397 225.917969 L 394 225.917969 Z M 394 6.972656 "/>
</clipPath>
<clipPath id="clip-15">
<path clip-rule="nonzero" d="M 42.164062 6.972656 L 425.027344 6.972656 L 425.027344 225.917969 L 42.164062 225.917969 Z M 42.164062 6.972656 "/>
</clipPath>
</defs>
<rect x="-43.2" y="-26.6" width="518.4" height="319.2" fill="rgb(100%, 100%, 100%)" fill-opacity="1"/>
<rect x="-43.2" y="-26.6" width="518.4" height="319.2" fill="rgb(100%, 100%, 100%)" fill-opacity="1"/>
<path fill="none" stroke-width="1.357972" stroke-linecap="round" stroke-linejoin="round" stroke="rgb(100%, 100%, 100%)" stroke-opacity="1" stroke-miterlimit="10" d="M 0 266 L 432 266 L 432 0 L 0 0 Z M 0 266 "/>
<g clip-path="url(#clip-0)">
<path fill-rule="nonzero" fill="rgb(100%, 100%, 100%)" fill-opacity="1" d="M 42.164062 225.921875 L 425.027344 225.921875 L 425.027344 6.976562 L 42.164062 6.976562 Z M 42.164062 225.921875 "/>
</g>
<g clip-path="url(#clip-1)">
<path fill="none" stroke-width="0.678986" stroke-linecap="butt" stroke-linejoin="round" stroke="rgb(92.156863%, 92.156863%, 92.156863%)" stroke-opacity="1" stroke-miterlimit="10" d="M 42.164062 181.015625 L 425.027344 181.015625 "/>
</g>
<g clip-path="url(#clip-2)">
<path fill="none" stroke-width="0.678986" stroke-linecap="butt" stroke-linejoin="round" stroke="rgb(92.156863%, 92.156863%, 92.156863%)" stroke-opacity="1" stroke-miterlimit="10" d="M 42.164062 128.054688 L 425.027344 128.054688 "/>
</g>
<g clip-path="url(#clip-3)">
<path fill="none" stroke-width="0.678986" stroke-linecap="butt" stroke-linejoin="round" stroke="rgb(92.156863%, 92.156863%, 92.156863%)" stroke-opacity="1" stroke-miterlimit="10" d="M 42.164062 75.097656 L 425.027344 75.097656 "/>
</g>
<g clip-path="url(#clip-4)">
<path fill="none" stroke-width="0.678986" stroke-linecap="butt" stroke-linejoin="round" stroke="rgb(92.156863%, 92.156863%, 92.156863%)" stroke-opacity="1" stroke-miterlimit="10" d="M 42.164062 22.136719 L 425.027344 22.136719 "/>
</g>
<g clip-path="url(#clip-5)">
<path fill="none" stroke-width="0.678986" stroke-linecap="butt" stroke-linejoin="round" stroke="rgb(92.156863%, 92.156863%, 92.156863%)" stroke-opacity="1" stroke-miterlimit="10" d="M 76.171875 225.921875 L 76.171875 6.972656 "/>
</g>
<g clip-path="url(#clip-6)">
<path fill="none" stroke-width="0.678986" stroke-linecap="butt" stroke-linejoin="round" stroke="rgb(92.156863%, 92.156863%, 92.156863%)" stroke-opacity="1" stroke-miterlimit="10" d="M 203.898438 225.921875 L 203.898438 6.972656 "/>
</g>
<g clip-path="url(#clip-7)">
<path fill="none" stroke-width="0.678986" stroke-linecap="butt" stroke-linejoin="round" stroke="rgb(92.156863%, 92.156863%, 92.156863%)" stroke-opacity="1" stroke-miterlimit="10" d="M 331.625 225.921875 L 331.625 6.972656 "/>
</g>
<g clip-path="url(#clip-8)">
<path fill="none" stroke-width="1.357972" stroke-linecap="butt" stroke-linejoin="round" stroke="rgb(92.156863%, 92.156863%, 92.156863%)" stroke-opacity="1" stroke-miterlimit="10" d="M 42.164062 207.496094 L 425.027344 207.496094 "/>
</g>
<g clip-path="url(#clip-9)">
<path fill="none" stroke-width="1.357972" stroke-linecap="butt" stroke-linejoin="round" stroke="rgb(92.156863%, 92.156863%, 92.156863%)" stroke-opacity="1" stroke-miterlimit="10" d="M 42.164062 154.535156 L 425.027344 154.535156 "/>
</g>
<g clip-path="url(#clip-10)">
<path fill="none" stroke-width="1.357972" stroke-linecap="butt" stroke-linejoin="round" stroke="rgb(92.156863%, 92.156863%, 92.156863%)" stroke-opacity="1" stroke-miterlimit="10" d="M 42.164062 101.574219 L 425.027344 101.574219 "/>
</g>
<g clip-path="url(#clip-11)">
<path fill="none" stroke-width="1.357972" stroke-linecap="butt" stroke-linejoin="round" stroke="rgb(92.156863%, 92.156863%, 92.156863%)" stroke-opacity="1" stroke-miterlimit="10" d="M 42.164062 48.617188 L 425.027344 48.617188 "/>
</g>
<g clip-path="url(#clip-12)">
<path fill="none" stroke-width="1.357972" stroke-linecap="butt" stroke-linejoin="round" stroke="rgb(92.156863%, 92.156863%, 92.156863%)" stroke-opacity="1" stroke-miterlimit="10" d="M 140.035156 225.921875 L 140.035156 6.972656 "/>
</g>
<g clip-path="url(#clip-13)">
<path fill="none" stroke-width="1.357972" stroke-linecap="butt" stroke-linejoin="round" stroke="rgb(92.156863%, 92.156863%, 92.156863%)" stroke-opacity="1" stroke-miterlimit="10" d="M 267.761719 225.921875 L 267.761719 6.972656 "/>
</g>
<g clip-path="url(#clip-14)">
<path fill="none" stroke-width="1.357972" stroke-linecap="butt" stroke-linejoin="round" stroke="rgb(92.156863%, 92.156863%, 92.156863%)" stroke-opacity="1" stroke-miterlimit="10" d="M 395.488281 225.921875 L 395.488281 6.972656 "/>
</g>
<path fill-rule="nonzero" fill="rgb(0%, 0%, 0%)" fill-opacity="1" stroke-width="0.901933" stroke-linecap="round" stroke-linejoin="round" stroke="rgb(0%, 0%, 0%)" stroke-opacity="1" stroke-miterlimit="10" d="M 116.433594 173.601562 C 116.433594 177.046875 111.265625 177.046875 111.265625 173.601562 C 111.265625 170.152344 116.433594 170.152344 116.433594 173.601562 "/>
<path fill-rule="nonzero" fill="rgb(0%, 0%, 0%)" fill-opacity="1" stroke-width="0.901933" stroke-linecap="round" stroke-linejoin="round" stroke="rgb(0%, 0%, 0%)" stroke-opacity="1" stroke-miterlimit="10" d="M 231.390625 122.757812 C 231.390625 126.207031 226.21875 126.207031 226.21875 122.757812 C 226.21875 119.3125 231.390625 119.3125 231.390625 122.757812 "/>
<path fill-rule="nonzero" fill="rgb(0%, 0%, 0%)" fill-opacity="1" stroke-width="0.901933" stroke-linecap="round" stroke-linejoin="round" stroke="rgb(0%, 0%, 0%)" stroke-opacity="1" stroke-miterlimit="10" d="M 200.734375 134.410156 C 200.734375 137.855469 195.566406 137.855469 195.566406 134.410156 C 195.566406 130.964844 200.734375 130.964844 200.734375 134.410156 "/>
<path fill-rule="nonzero" fill="rgb(0%, 0%, 0%)" fill-opacity="1" stroke-width="0.901933" stroke-linecap="round" stroke-linejoin="round" stroke="rgb(0%, 0%, 0%)" stroke-opacity="1" stroke-miterlimit="10" d="M 255.65625 89.925781 C 255.65625 93.371094 250.488281 93.371094 250.488281 89.925781 C 250.488281 86.476562 255.65625 86.476562 255.65625 89.925781 "/>
<path fill-rule="nonzero" fill="rgb(0%, 0%, 0%)" fill-opacity="1" stroke-width="0.901933" stroke-linecap="round" stroke-linejoin="round" stroke="rgb(0%, 0%, 0%)" stroke-opacity="1" stroke-miterlimit="10" d="M 206.484375 89.925781 C 206.484375 93.371094 201.3125 93.371094 201.3125 89.925781 C 201.3125 86.476562 206.484375 86.476562 206.484375 89.925781 "/>
<path fill-rule="nonzero" fill="rgb(0%, 0%, 0%)" fill-opacity="1" stroke-width="0.901933" stroke-linecap="round" stroke-linejoin="round" stroke="rgb(0%, 0%, 0%)" stroke-opacity="1" stroke-miterlimit="10" d="M 115.15625 139.707031 C 115.15625 143.152344 109.988281 143.152344 109.988281 139.707031 C 109.988281 136.261719 115.15625 136.261719 115.15625 139.707031 "/>
<path fill-rule="nonzero" fill="rgb(0%, 0%, 0%)" fill-opacity="1" stroke-width="0.901933" stroke-linecap="round" stroke-linejoin="round" stroke="rgb(0%, 0%, 0%)" stroke-opacity="1" stroke-miterlimit="10" d="M 147.726562 122.757812 C 147.726562 126.207031 142.558594 126.207031 142.558594 122.757812 C 142.558594 119.3125 147.726562 119.3125 147.726562 122.757812 "/>
<path fill-rule="nonzero" fill="rgb(0%, 0%, 0%)" fill-opacity="1" stroke-width="0.901933" stroke-linecap="round" stroke-linejoin="round" stroke="rgb(0%, 0%, 0%)" stroke-opacity="1" stroke-miterlimit="10" d="M 166.25 69.800781 C 166.25 73.246094 161.078125 73.246094 161.078125 69.800781 C 161.078125 66.351562 166.25 66.351562 166.25 69.800781 "/>
<path fill-rule="nonzero" fill="rgb(0%, 0%, 0%)" fill-opacity="1" stroke-width="0.901933" stroke-linecap="round" stroke-linejoin="round" stroke="rgb(0%, 0%, 0%)" stroke-opacity="1" stroke-miterlimit="10" d="M 182.851562 114.285156 C 182.851562 117.734375 177.683594 117.734375 177.683594 114.285156 C 177.683594 110.839844 182.851562 110.839844 182.851562 114.285156 "/>
<path fill-rule="nonzero" fill="rgb(0%, 0%, 0%)" fill-opacity="1" stroke-width="0.901933" stroke-linecap="round" stroke-linejoin="round" stroke="rgb(0%, 0%, 0%)" stroke-opacity="1" stroke-miterlimit="10" d="M 236.5 122.757812 C 236.5 126.207031 231.328125 126.207031 231.328125 122.757812 C 231.328125 119.3125 236.5 119.3125 236.5 122.757812 "/>
<path fill-rule="nonzero" fill="rgb(0%, 0%, 0%)" fill-opacity="1" stroke-width="0.901933" stroke-linecap="round" stroke-linejoin="round" stroke="rgb(0%, 0%, 0%)" stroke-opacity="1" stroke-miterlimit="10" d="M 270.984375 101.574219 C 270.984375 105.023438 265.816406 105.023438 265.816406 101.574219 C 265.816406 98.128906 270.984375 98.128906 270.984375 101.574219 "/>
<path fill-rule="nonzero" fill="rgb(0%, 0%, 0%)" fill-opacity="1" stroke-width="0.901933" stroke-linecap="round" stroke-linejoin="round" stroke="rgb(0%, 0%, 0%)" stroke-opacity="1" stroke-miterlimit="10" d="M 100.46875 152.417969 C 100.46875 155.863281 95.300781 155.863281 95.300781 152.417969 C 95.300781 148.96875 100.46875 148.96875 100.46875 152.417969 "/>
<path fill-rule="nonzero" fill="rgb(0%, 0%, 0%)" fill-opacity="1" stroke-width="0.901933" stroke-linecap="round" stroke-linejoin="round" stroke="rgb(0%, 0%, 0%)" stroke-opacity="1" stroke-miterlimit="10" d="M 87.695312 148.179688 C 87.695312 151.625 82.527344 151.625 82.527344 148.179688 C 82.527344 144.734375 87.695312 144.734375 87.695312 148.179688 "/>
<path fill-rule="nonzero" fill="rgb(0%, 0%, 0%)" fill-opacity="1" stroke-width="0.901933" stroke-linecap="round" stroke-linejoin="round" stroke="rgb(0%, 0%, 0%)" stroke-opacity="1" stroke-miterlimit="10" d="M 111.324219 149.238281 C 111.324219 152.6875 106.15625 152.6875 106.15625 149.238281 C 106.15625 145.792969 111.324219 145.792969 111.324219 149.238281 "/>
<path fill-rule="nonzero" fill="rgb(0%, 0%, 0%)" fill-opacity="1" stroke-width="0.901933" stroke-linecap="round" stroke-linejoin="round" stroke="rgb(0%, 0%, 0%)" stroke-opacity="1" stroke-miterlimit="10" d="M 116.433594 138.648438 C 116.433594 142.09375 111.265625 142.09375 111.265625 138.648438 C 111.265625 135.199219 116.433594 135.199219 116.433594 138.648438 "/>
<path fill-rule="nonzero" fill="rgb(0%, 0%, 0%)" fill-opacity="1" stroke-width="0.901933" stroke-linecap="round" stroke-linejoin="round" stroke="rgb(0%, 0%, 0%)" stroke-opacity="1" stroke-miterlimit="10" d="M 118.988281 101.574219 C 118.988281 105.023438 113.820312 105.023438 113.820312 101.574219 C 113.820312 98.128906 118.988281 98.128906 118.988281 101.574219 "/>
<path fill-rule="nonzero" fill="rgb(0%, 0%, 0%)" fill-opacity="1" stroke-width="0.901933" stroke-linecap="round" stroke-linejoin="round" stroke="rgb(0%, 0%, 0%)" stroke-opacity="1" stroke-miterlimit="10" d="M 120.90625 27.433594 C 120.90625 30.878906 115.734375 30.878906 115.734375 27.433594 C 115.734375 23.984375 120.90625 23.984375 120.90625 27.433594 "/>
<path fill-rule="nonzero" fill="rgb(0%, 0%, 0%)" fill-opacity="1" stroke-width="0.901933" stroke-linecap="round" stroke-linejoin="round" stroke="rgb(0%, 0%, 0%)" stroke-opacity="1" stroke-miterlimit="10" d="M 134.957031 69.800781 C 134.957031 73.246094 129.785156 73.246094 129.785156 69.800781 C 129.785156 66.351562 134.957031 66.351562 134.957031 69.800781 "/>
<path fill-rule="nonzero" fill="rgb(0%, 0%, 0%)" fill-opacity="1" stroke-width="0.901933" stroke-linecap="round" stroke-linejoin="round" stroke="rgb(0%, 0%, 0%)" stroke-opacity="1" stroke-miterlimit="10" d="M 257.574219 101.574219 C 257.574219 105.023438 252.402344 105.023438 252.402344 101.574219 C 252.402344 98.128906 257.574219 98.128906 257.574219 101.574219 "/>
<path fill-rule="nonzero" fill="rgb(0%, 0%, 0%)" fill-opacity="1" stroke-width="0.901933" stroke-linecap="round" stroke-linejoin="round" stroke="rgb(0%, 0%, 0%)" stroke-opacity="1" stroke-miterlimit="10" d="M 132.402344 122.757812 C 132.402344 126.207031 127.230469 126.207031 127.230469 122.757812 C 127.230469 119.3125 132.402344 119.3125 132.402344 122.757812 "/>
<path fill-rule="nonzero" fill="rgb(0%, 0%, 0%)" fill-opacity="1" stroke-width="0.901933" stroke-linecap="round" stroke-linejoin="round" stroke="rgb(0%, 0%, 0%)" stroke-opacity="1" stroke-miterlimit="10" d="M 115.796875 143.945312 C 115.796875 147.390625 110.625 147.390625 110.625 143.945312 C 110.625 140.496094 115.796875 140.496094 115.796875 143.945312 "/>
<path fill-rule="nonzero" fill="rgb(0%, 0%, 0%)" fill-opacity="1" stroke-width="0.901933" stroke-linecap="round" stroke-linejoin="round" stroke="rgb(0%, 0%, 0%)" stroke-opacity="1" stroke-miterlimit="10" d="M 203.289062 143.945312 C 203.289062 147.390625 198.121094 147.390625 198.121094 143.945312 C 198.121094 140.496094 203.289062 140.496094 203.289062 143.945312 "/>
<path fill-rule="nonzero" fill="rgb(0%, 0%, 0%)" fill-opacity="1" stroke-width="0.901933" stroke-linecap="round" stroke-linejoin="round" stroke="rgb(0%, 0%, 0%)" stroke-opacity="1" stroke-miterlimit="10" d="M 73.644531 173.601562 C 73.644531 177.046875 68.476562 177.046875 68.476562 173.601562 C 68.476562 170.152344 73.644531 170.152344 73.644531 173.601562 "/>
<path fill-rule="nonzero" fill="rgb(0%, 0%, 0%)" fill-opacity="1" stroke-width="0.901933" stroke-linecap="round" stroke-linejoin="round" stroke="rgb(0%, 0%, 0%)" stroke-opacity="1" stroke-miterlimit="10" d="M 87.058594 165.128906 C 87.058594 168.574219 81.886719 168.574219 81.886719 165.128906 C 81.886719 161.679688 87.058594 161.679688 87.058594 165.128906 "/>
<path fill-rule="nonzero" fill="rgb(0%, 0%, 0%)" fill-opacity="1" stroke-width="0.901933" stroke-linecap="round" stroke-linejoin="round" stroke="rgb(0%, 0%, 0%)" stroke-opacity="1" stroke-miterlimit="10" d="M 99.832031 143.945312 C 99.832031 147.390625 94.660156 147.390625 94.660156 143.945312 C 94.660156 140.496094 99.832031 140.496094 99.832031 143.945312 "/>
<path fill-rule="nonzero" fill="rgb(0%, 0%, 0%)" fill-opacity="1" stroke-width="0.901933" stroke-linecap="round" stroke-linejoin="round" stroke="rgb(0%, 0%, 0%)" stroke-opacity="1" stroke-miterlimit="10" d="M 136.234375 101.574219 C 136.234375 105.023438 131.0625 105.023438 131.0625 101.574219 C 131.0625 98.128906 136.234375 98.128906 136.234375 101.574219 "/>
<path fill-rule="nonzero" fill="rgb(0%, 0%, 0%)" fill-opacity="1" stroke-width="0.901933" stroke-linecap="round" stroke-linejoin="round" stroke="rgb(0%, 0%, 0%)" stroke-opacity="1" stroke-miterlimit="10" d="M 114.519531 143.945312 C 114.519531 147.390625 109.347656 147.390625 109.347656 143.945312 C 109.347656 140.496094 114.519531 140.496094 114.519531 143.945312 "/>
<path fill-rule="nonzero" fill="rgb(0%, 0%, 0%)" fill-opacity="1" stroke-width="0.901933" stroke-linecap="round" stroke-linejoin="round" stroke="rgb(0%, 0%, 0%)" stroke-opacity="1" stroke-miterlimit="10" d="M 179.660156 103.695312 C 179.660156 107.140625 174.488281 107.140625 174.488281 103.695312 C 174.488281 100.246094 179.660156 100.246094 179.660156 103.695312 "/>
<path fill-rule="nonzero" fill="rgb(0%, 0%, 0%)" fill-opacity="1" stroke-width="0.901933" stroke-linecap="round" stroke-linejoin="round" stroke="rgb(0%, 0%, 0%)" stroke-opacity="1" stroke-miterlimit="10" d="M 92.804688 173.601562 C 92.804688 177.046875 87.636719 177.046875 87.636719 173.601562 C 87.636719 170.152344 92.804688 170.152344 92.804688 173.601562 "/>
<path fill-rule="nonzero" fill="rgb(0%, 0%, 0%)" fill-opacity="1" stroke-width="0.901933" stroke-linecap="round" stroke-linejoin="round" stroke="rgb(0%, 0%, 0%)" stroke-opacity="1" stroke-miterlimit="10" d="M 138.148438 122.757812 C 138.148438 126.207031 132.980469 126.207031 132.980469 122.757812 C 132.980469 119.3125 138.148438 119.3125 138.148438 122.757812 "/>
<path fill-rule="nonzero" fill="rgb(0%, 0%, 0%)" fill-opacity="1" stroke-width="0.901933" stroke-linecap="round" stroke-linejoin="round" stroke="rgb(0%, 0%, 0%)" stroke-opacity="1" stroke-miterlimit="10" d="M 62.152344 207.496094 C 62.152344 210.941406 56.980469 210.941406 56.980469 207.496094 C 56.980469 204.046875 62.152344 204.046875 62.152344 207.496094 "/>
<path fill-rule="nonzero" fill="rgb(0%, 0%, 0%)" fill-opacity="1" stroke-width="0.901933" stroke-linecap="round" stroke-linejoin="round" stroke="rgb(0%, 0%, 0%)" stroke-opacity="1" stroke-miterlimit="10" d="M 79.394531 173.601562 C 79.394531 177.046875 74.222656 177.046875 74.222656 173.601562 C 74.222656 170.152344 79.394531 170.152344 79.394531 173.601562 "/>
<path fill-rule="nonzero" fill="rgb(0%, 0%, 0%)" fill-opacity="1" stroke-width="0.901933" stroke-linecap="round" stroke-linejoin="round" stroke="rgb(0%, 0%, 0%)" stroke-opacity="1" stroke-miterlimit="10" d="M 87.058594 145.003906 C 87.058594 148.449219 81.886719 148.449219 81.886719 145.003906 C 81.886719 141.554688 87.058594 141.554688 87.058594 145.003906 "/>
<path fill-rule="nonzero" fill="rgb(0%, 0%, 0%)" fill-opacity="1" stroke-width="0.901933" stroke-linecap="round" stroke-linejoin="round" stroke="rgb(0%, 0%, 0%)" stroke-opacity="1" stroke-miterlimit="10" d="M 116.433594 150.296875 C 116.433594 153.746094 111.265625 153.746094 111.265625 150.296875 C 111.265625 146.851562 116.433594 146.851562 116.433594 150.296875 "/>
<path fill-rule="nonzero" fill="rgb(0%, 0%, 0%)" fill-opacity="1" stroke-width="0.901933" stroke-linecap="round" stroke-linejoin="round" stroke="rgb(0%, 0%, 0%)" stroke-opacity="1" stroke-miterlimit="10" d="M 104.300781 149.238281 C 104.300781 152.6875 99.132812 152.6875 99.132812 149.238281 C 99.132812 145.792969 104.300781 145.792969 104.300781 149.238281 "/>
<path fill-rule="nonzero" fill="rgb(0%, 0%, 0%)" fill-opacity="1" stroke-width="0.901933" stroke-linecap="round" stroke-linejoin="round" stroke="rgb(0%, 0%, 0%)" stroke-opacity="1" stroke-miterlimit="10" d="M 141.980469 90.984375 C 141.980469 94.429688 136.808594 94.429688 136.808594 90.984375 C 136.808594 87.535156 141.980469 87.535156 141.980469 90.984375 "/>
<path fill-rule="nonzero" fill="rgb(0%, 0%, 0%)" fill-opacity="1" stroke-width="0.901933" stroke-linecap="round" stroke-linejoin="round" stroke="rgb(0%, 0%, 0%)" stroke-opacity="1" stroke-miterlimit="10" d="M 143.894531 143.945312 C 143.894531 147.390625 138.726562 147.390625 138.726562 143.945312 C 138.726562 140.496094 143.894531 140.496094 143.894531 143.945312 "/>
<path fill-rule="nonzero" fill="rgb(0%, 0%, 0%)" fill-opacity="1" stroke-width="0.901933" stroke-linecap="round" stroke-linejoin="round" stroke="rgb(0%, 0%, 0%)" stroke-opacity="1" stroke-miterlimit="10" d="M 148.367188 101.574219 C 148.367188 105.023438 143.195312 105.023438 143.195312 101.574219 C 143.195312 98.128906 148.367188 98.128906 148.367188 101.574219 "/>
<path fill-rule="nonzero" fill="rgb(0%, 0%, 0%)" fill-opacity="1" stroke-width="0.901933" stroke-linecap="round" stroke-linejoin="round" stroke="rgb(0%, 0%, 0%)" stroke-opacity="1" stroke-miterlimit="10" d="M 68.535156 201.140625 C 68.535156 204.585938 63.367188 204.585938 63.367188 201.140625 C 63.367188 197.691406 68.535156 197.691406 68.535156 201.140625 "/>
<path fill-rule="nonzero" fill="rgb(0%, 0%, 0%)" fill-opacity="1" stroke-width="0.901933" stroke-linecap="round" stroke-linejoin="round" stroke="rgb(0%, 0%, 0%)" stroke-opacity="1" stroke-miterlimit="10" d="M 94.722656 182.074219 C 94.722656 185.519531 89.550781 185.519531 89.550781 182.074219 C 89.550781 178.628906 94.722656 178.628906 94.722656 182.074219 "/>
<path fill-rule="nonzero" fill="rgb(0%, 0%, 0%)" fill-opacity="1" stroke-width="0.901933" stroke-linecap="round" stroke-linejoin="round" stroke="rgb(0%, 0%, 0%)" stroke-opacity="1" stroke-miterlimit="10" d="M 141.339844 145.003906 C 141.339844 148.449219 136.171875 148.449219 136.171875 145.003906 C 136.171875 141.554688 141.339844 141.554688 141.339844 145.003906 "/>
<path fill-rule="nonzero" fill="rgb(0%, 0%, 0%)" fill-opacity="1" stroke-width="0.901933" stroke-linecap="round" stroke-linejoin="round" stroke="rgb(0%, 0%, 0%)" stroke-opacity="1" stroke-miterlimit="10" d="M 92.167969 187.371094 C 92.167969 190.816406 86.996094 190.816406 86.996094 187.371094 C 86.996094 183.921875 92.167969 183.921875 92.167969 187.371094 "/>
<path fill-rule="nonzero" fill="rgb(0%, 0%, 0%)" fill-opacity="1" stroke-width="0.901933" stroke-linecap="round" stroke-linejoin="round" stroke="rgb(0%, 0%, 0%)" stroke-opacity="1" stroke-miterlimit="10" d="M 126.652344 133.351562 C 126.652344 136.796875 121.484375 136.796875 121.484375 133.351562 C 121.484375 129.90625 126.652344 129.90625 126.652344 133.351562 "/>
<path fill-rule="nonzero" fill="rgb(0%, 0%, 0%)" fill-opacity="1" stroke-width="0.901933" stroke-linecap="round" stroke-linejoin="round" stroke="rgb(0%, 0%, 0%)" stroke-opacity="1" stroke-miterlimit="10" d="M 65.984375 187.371094 C 65.984375 190.816406 60.8125 190.816406 60.8125 187.371094 C 60.8125 183.921875 65.984375 183.921875 65.984375 187.371094 "/>
<path fill-rule="nonzero" fill="rgb(0%, 0%, 0%)" fill-opacity="1" stroke-width="0.901933" stroke-linecap="round" stroke-linejoin="round" stroke="rgb(0%, 0%, 0%)" stroke-opacity="1" stroke-miterlimit="10" d="M 78.753906 168.304688 C 78.753906 171.75 73.585938 171.75 73.585938 168.304688 C 73.585938 164.859375 78.753906 164.859375 78.753906 168.304688 "/>
<path fill-rule="nonzero" fill="rgb(0%, 0%, 0%)" fill-opacity="1" stroke-width="0.901933" stroke-linecap="round" stroke-linejoin="round" stroke="rgb(0%, 0%, 0%)" stroke-opacity="1" stroke-miterlimit="10" d="M 78.753906 187.371094 C 78.753906 190.816406 73.585938 190.816406 73.585938 187.371094 C 73.585938 183.921875 78.753906 183.921875 78.753906 187.371094 "/>
<path fill-rule="nonzero" fill="rgb(0%, 0%, 0%)" fill-opacity="1" stroke-width="0.901933" stroke-linecap="round" stroke-linejoin="round" stroke="rgb(0%, 0%, 0%)" stroke-opacity="1" stroke-miterlimit="10" d="M 103.660156 131.234375 C 103.660156 134.679688 98.492188 134.679688 98.492188 131.234375 C 98.492188 127.785156 103.660156 127.785156 103.660156 131.234375 "/>
<path fill-rule="nonzero" fill="rgb(0%, 0%, 0%)" fill-opacity="1" stroke-width="0.901933" stroke-linecap="round" stroke-linejoin="round" stroke="rgb(0%, 0%, 0%)" stroke-opacity="1" stroke-miterlimit="10" d="M 320.800781 75.097656 C 320.800781 78.542969 315.628906 78.542969 315.628906 75.097656 C 315.628906 71.648438 320.800781 71.648438 320.800781 75.097656 "/>
<path fill-rule="nonzero" fill="rgb(0%, 0%, 0%)" fill-opacity="1" stroke-width="0.901933" stroke-linecap="round" stroke-linejoin="round" stroke="rgb(0%, 0%, 0%)" stroke-opacity="1" stroke-miterlimit="10" d="M 193.710938 117.464844 C 193.710938 120.910156 188.539062 120.910156 188.539062 117.464844 C 188.539062 114.015625 193.710938 114.015625 193.710938 117.464844 "/>
<path fill-rule="nonzero" fill="rgb(0%, 0%, 0%)" fill-opacity="1" stroke-width="0.901933" stroke-linecap="round" stroke-linejoin="round" stroke="rgb(0%, 0%, 0%)" stroke-opacity="1" stroke-miterlimit="10" d="M 239.691406 95.21875 C 239.691406 98.667969 234.523438 98.667969 234.523438 95.21875 C 234.523438 91.773438 239.691406 91.773438 239.691406 95.21875 "/>
<path fill-rule="nonzero" fill="rgb(0%, 0%, 0%)" fill-opacity="1" stroke-width="0.901933" stroke-linecap="round" stroke-linejoin="round" stroke="rgb(0%, 0%, 0%)" stroke-opacity="1" stroke-miterlimit="10" d="M 233.945312 118.523438 C 233.945312 121.96875 228.773438 121.96875 228.773438 118.523438 C 228.773438 115.074219 233.945312 115.074219 233.945312 118.523438 "/>
<path fill-rule="nonzero" fill="rgb(0%, 0%, 0%)" fill-opacity="1" stroke-width="0.901933" stroke-linecap="round" stroke-linejoin="round" stroke="rgb(0%, 0%, 0%)" stroke-opacity="1" stroke-miterlimit="10" d="M 245.441406 101.574219 C 245.441406 105.023438 240.269531 105.023438 240.269531 101.574219 C 240.269531 98.128906 245.441406 98.128906 245.441406 101.574219 "/>
<path fill-rule="nonzero" fill="rgb(0%, 0%, 0%)" fill-opacity="1" stroke-width="0.901933" stroke-linecap="round" stroke-linejoin="round" stroke="rgb(0%, 0%, 0%)" stroke-opacity="1" stroke-miterlimit="10" d="M 67.898438 173.601562 C 67.898438 177.046875 62.730469 177.046875 62.730469 173.601562 C 62.730469 170.152344 67.898438 170.152344 67.898438 173.601562 "/>
<path fill-rule="nonzero" fill="rgb(0%, 0%, 0%)" fill-opacity="1" stroke-width="0.901933" stroke-linecap="round" stroke-linejoin="round" stroke="rgb(0%, 0%, 0%)" stroke-opacity="1" stroke-miterlimit="10" d="M 88.972656 159.832031 C 88.972656 163.277344 83.804688 163.277344 83.804688 159.832031 C 83.804688 156.382812 88.972656 156.382812 88.972656 159.832031 "/>
<path fill-rule="nonzero" fill="rgb(0%, 0%, 0%)" fill-opacity="1" stroke-width="0.901933" stroke-linecap="round" stroke-linejoin="round" stroke="rgb(0%, 0%, 0%)" stroke-opacity="1" stroke-miterlimit="10" d="M 120.265625 149.238281 C 120.265625 152.6875 115.097656 152.6875 115.097656 149.238281 C 115.097656 145.792969 120.265625 145.792969 120.265625 149.238281 "/>
<path fill-rule="nonzero" fill="rgb(0%, 0%, 0%)" fill-opacity="1" stroke-width="0.901933" stroke-linecap="round" stroke-linejoin="round" stroke="rgb(0%, 0%, 0%)" stroke-opacity="1" stroke-miterlimit="10" d="M 136.871094 105.8125 C 136.871094 109.257812 131.703125 109.257812 131.703125 105.8125 C 131.703125 102.367188 136.871094 102.367188 136.871094 105.8125 "/>
<path fill-rule="nonzero" fill="rgb(0%, 0%, 0%)" fill-opacity="1" stroke-width="0.901933" stroke-linecap="round" stroke-linejoin="round" stroke="rgb(0%, 0%, 0%)" stroke-opacity="1" stroke-miterlimit="10" d="M 222.449219 101.574219 C 222.449219 105.023438 217.277344 105.023438 217.277344 101.574219 C 217.277344 98.128906 222.449219 98.128906 222.449219 101.574219 "/>
<path fill-rule="nonzero" fill="rgb(0%, 0%, 0%)" fill-opacity="1" stroke-width="0.901933" stroke-linecap="round" stroke-linejoin="round" stroke="rgb(0%, 0%, 0%)" stroke-opacity="1" stroke-miterlimit="10" d="M 218.617188 159.832031 C 218.617188 163.277344 213.445312 163.277344 213.445312 159.832031 C 213.445312 156.382812 218.617188 156.382812 218.617188 159.832031 "/>
<path fill-rule="nonzero" fill="rgb(0%, 0%, 0%)" fill-opacity="1" stroke-width="0.901933" stroke-linecap="round" stroke-linejoin="round" stroke="rgb(0%, 0%, 0%)" stroke-opacity="1" stroke-miterlimit="10" d="M 410.207031 117.464844 C 410.207031 120.910156 405.039062 120.910156 405.039062 117.464844 C 405.039062 114.015625 410.207031 114.015625 410.207031 117.464844 "/>
<path fill-rule="nonzero" fill="rgb(0%, 0%, 0%)" fill-opacity="1" stroke-width="0.901933" stroke-linecap="round" stroke-linejoin="round" stroke="rgb(0%, 0%, 0%)" stroke-opacity="1" stroke-miterlimit="10" d="M 104.9375 195.84375 C 104.9375 199.289062 99.769531 199.289062 99.769531 195.84375 C 99.769531 192.398438 104.9375 192.398438 104.9375 195.84375 "/>
<path fill-rule="nonzero" fill="rgb(0%, 0%, 0%)" fill-opacity="1" stroke-width="0.901933" stroke-linecap="round" stroke-linejoin="round" stroke="rgb(0%, 0%, 0%)" stroke-opacity="1" stroke-miterlimit="10" d="M 110.046875 122.757812 C 110.046875 126.207031 104.878906 126.207031 104.878906 122.757812 C 104.878906 119.3125 110.046875 119.3125 110.046875 122.757812 "/>
<path fill-rule="nonzero" fill="rgb(0%, 0%, 0%)" fill-opacity="1" stroke-width="0.901933" stroke-linecap="round" stroke-linejoin="round" stroke="rgb(0%, 0%, 0%)" stroke-opacity="1" stroke-miterlimit="10" d="M 80.671875 173.601562 C 80.671875 177.046875 75.5 177.046875 75.5 173.601562 C 75.5 170.152344 80.671875 170.152344 80.671875 173.601562 "/>
<path fill-rule="nonzero" fill="rgb(0%, 0%, 0%)" fill-opacity="1" stroke-width="0.901933" stroke-linecap="round" stroke-linejoin="round" stroke="rgb(0%, 0%, 0%)" stroke-opacity="1" stroke-miterlimit="10" d="M 181.574219 112.167969 C 181.574219 115.613281 176.40625 115.613281 176.40625 112.167969 C 176.40625 108.722656 181.574219 108.722656 181.574219 112.167969 "/>
<path fill-rule="nonzero" fill="rgb(0%, 0%, 0%)" fill-opacity="1" stroke-width="0.901933" stroke-linecap="round" stroke-linejoin="round" stroke="rgb(0%, 0%, 0%)" stroke-opacity="1" stroke-miterlimit="10" d="M 90.25 173.601562 C 90.25 177.046875 85.082031 177.046875 85.082031 173.601562 C 85.082031 170.152344 90.25 170.152344 90.25 173.601562 "/>
<path fill-rule="nonzero" fill="rgb(0%, 0%, 0%)" fill-opacity="1" stroke-width="0.901933" stroke-linecap="round" stroke-linejoin="round" stroke="rgb(0%, 0%, 0%)" stroke-opacity="1" stroke-miterlimit="10" d="M 115.15625 145.003906 C 115.15625 148.449219 109.988281 148.449219 109.988281 145.003906 C 109.988281 141.554688 115.15625 141.554688 115.15625 145.003906 "/>
<path fill-rule="nonzero" fill="rgb(0%, 0%, 0%)" fill-opacity="1" stroke-width="0.901933" stroke-linecap="round" stroke-linejoin="round" stroke="rgb(0%, 0%, 0%)" stroke-opacity="1" stroke-miterlimit="10" d="M 136.871094 101.574219 C 136.871094 105.023438 131.703125 105.023438 131.703125 101.574219 C 131.703125 98.128906 136.871094 98.128906 136.871094 101.574219 "/>
<path fill-rule="nonzero" fill="rgb(0%, 0%, 0%)" fill-opacity="1" stroke-width="0.901933" stroke-linecap="round" stroke-linejoin="round" stroke="rgb(0%, 0%, 0%)" stroke-opacity="1" stroke-miterlimit="10" d="M 152.199219 117.464844 C 152.199219 120.910156 147.027344 120.910156 147.027344 117.464844 C 147.027344 114.015625 152.199219 114.015625 152.199219 117.464844 "/>
<path fill-rule="nonzero" fill="rgb(0%, 0%, 0%)" fill-opacity="1" stroke-width="0.901933" stroke-linecap="round" stroke-linejoin="round" stroke="rgb(0%, 0%, 0%)" stroke-opacity="1" stroke-miterlimit="10" d="M 101.109375 152.417969 C 101.109375 155.863281 95.9375 155.863281 95.9375 152.417969 C 95.9375 148.96875 101.109375 148.96875 101.109375 152.417969 "/>
<path fill-rule="nonzero" fill="rgb(0%, 0%, 0%)" fill-opacity="1" stroke-width="0.901933" stroke-linecap="round" stroke-linejoin="round" stroke="rgb(0%, 0%, 0%)" stroke-opacity="1" stroke-miterlimit="10" d="M 118.988281 138.648438 C 118.988281 142.09375 113.820312 142.09375 113.820312 138.648438 C 113.820312 135.199219 118.988281 135.199219 118.988281 138.648438 "/>
<path fill-rule="nonzero" fill="rgb(0%, 0%, 0%)" fill-opacity="1" stroke-width="0.901933" stroke-linecap="round" stroke-linejoin="round" stroke="rgb(0%, 0%, 0%)" stroke-opacity="1" stroke-miterlimit="10" d="M 139.425781 101.574219 C 139.425781 105.023438 134.257812 105.023438 134.257812 101.574219 C 134.257812 98.128906 139.425781 98.128906 139.425781 101.574219 "/>
<path fill-rule="nonzero" fill="rgb(0%, 0%, 0%)" fill-opacity="1" stroke-width="0.901933" stroke-linecap="round" stroke-linejoin="round" stroke="rgb(0%, 0%, 0%)" stroke-opacity="1" stroke-miterlimit="10" d="M 147.089844 122.757812 C 147.089844 126.207031 141.917969 126.207031 141.917969 122.757812 C 141.917969 119.3125 147.089844 119.3125 147.089844 122.757812 "/>
<path fill-rule="nonzero" fill="rgb(0%, 0%, 0%)" fill-opacity="1" stroke-width="0.901933" stroke-linecap="round" stroke-linejoin="round" stroke="rgb(0%, 0%, 0%)" stroke-opacity="1" stroke-miterlimit="10" d="M 106.855469 145.003906 C 106.855469 148.449219 101.683594 148.449219 101.683594 145.003906 C 101.683594 141.554688 106.855469 141.554688 106.855469 145.003906 "/>
<path fill-rule="nonzero" fill="rgb(0%, 0%, 0%)" fill-opacity="1" stroke-width="0.901933" stroke-linecap="round" stroke-linejoin="round" stroke="rgb(0%, 0%, 0%)" stroke-opacity="1" stroke-miterlimit="10" d="M 72.367188 173.601562 C 72.367188 177.046875 67.199219 177.046875 67.199219 173.601562 C 67.199219 170.152344 72.367188 170.152344 72.367188 173.601562 "/>
<path fill-rule="nonzero" fill="rgb(0%, 0%, 0%)" fill-opacity="1" stroke-width="0.901933" stroke-linecap="round" stroke-linejoin="round" stroke="rgb(0%, 0%, 0%)" stroke-opacity="1" stroke-miterlimit="10" d="M 85.78125 152.417969 C 85.78125 155.863281 80.609375 155.863281 80.609375 152.417969 C 80.609375 148.96875 85.78125 148.96875 85.78125 152.417969 "/>
<path fill-rule="nonzero" fill="rgb(0%, 0%, 0%)" fill-opacity="1" stroke-width="0.901933" stroke-linecap="round" stroke-linejoin="round" stroke="rgb(0%, 0%, 0%)" stroke-opacity="1" stroke-miterlimit="10" d="M 127.929688 149.238281 C 127.929688 152.6875 122.761719 152.6875 122.761719 149.238281 C 122.761719 145.792969 127.929688 145.792969 127.929688 149.238281 "/>
<path fill-rule="nonzero" fill="rgb(0%, 0%, 0%)" fill-opacity="1" stroke-width="0.901933" stroke-linecap="round" stroke-linejoin="round" stroke="rgb(0%, 0%, 0%)" stroke-opacity="1" stroke-miterlimit="10" d="M 133.039062 138.648438 C 133.039062 142.09375 127.871094 142.09375 127.871094 138.648438 C 127.871094 135.199219 133.039062 135.199219 133.039062 138.648438 "/>
<path fill-rule="nonzero" fill="rgb(0%, 0%, 0%)" fill-opacity="1" stroke-width="0.901933" stroke-linecap="round" stroke-linejoin="round" stroke="rgb(0%, 0%, 0%)" stroke-opacity="1" stroke-miterlimit="10" d="M 170.71875 122.757812 C 170.71875 126.207031 165.550781 126.207031 165.550781 122.757812 C 165.550781 119.3125 170.71875 119.3125 170.71875 122.757812 "/>
<path fill-rule="nonzero" fill="rgb(0%, 0%, 0%)" fill-opacity="1" stroke-width="0.901933" stroke-linecap="round" stroke-linejoin="round" stroke="rgb(0%, 0%, 0%)" stroke-opacity="1" stroke-miterlimit="10" d="M 198.179688 122.757812 C 198.179688 126.207031 193.011719 126.207031 193.011719 122.757812 C 193.011719 119.3125 198.179688 119.3125 198.179688 122.757812 "/>
<path fill-rule="nonzero" fill="rgb(0%, 0%, 0%)" fill-opacity="1" stroke-width="0.901933" stroke-linecap="round" stroke-linejoin="round" stroke="rgb(0%, 0%, 0%)" stroke-opacity="1" stroke-miterlimit="10" d="M 85.78125 177.835938 C 85.78125 181.285156 80.609375 181.285156 80.609375 177.835938 C 80.609375 174.390625 85.78125 174.390625 85.78125 177.835938 "/>
<path fill-rule="nonzero" fill="rgb(0%, 0%, 0%)" fill-opacity="1" stroke-width="0.901933" stroke-linecap="round" stroke-linejoin="round" stroke="rgb(0%, 0%, 0%)" stroke-opacity="1" stroke-miterlimit="10" d="M 68.535156 215.96875 C 68.535156 219.414062 63.367188 219.414062 63.367188 215.96875 C 63.367188 212.523438 68.535156 212.523438 68.535156 215.96875 "/>
<path fill-rule="nonzero" fill="rgb(0%, 0%, 0%)" fill-opacity="1" stroke-width="0.901933" stroke-linecap="round" stroke-linejoin="round" stroke="rgb(0%, 0%, 0%)" stroke-opacity="1" stroke-miterlimit="10" d="M 84.503906 145.003906 C 84.503906 148.449219 79.332031 148.449219 79.332031 145.003906 C 79.332031 141.554688 84.503906 141.554688 84.503906 145.003906 "/>
<path fill-rule="nonzero" fill="rgb(0%, 0%, 0%)" fill-opacity="1" stroke-width="0.901933" stroke-linecap="round" stroke-linejoin="round" stroke="rgb(0%, 0%, 0%)" stroke-opacity="1" stroke-miterlimit="10" d="M 139.425781 145.003906 C 139.425781 148.449219 134.257812 148.449219 134.257812 145.003906 C 134.257812 141.554688 139.425781 141.554688 139.425781 145.003906 "/>
<path fill-rule="nonzero" fill="rgb(0%, 0%, 0%)" fill-opacity="1" stroke-width="0.901933" stroke-linecap="round" stroke-linejoin="round" stroke="rgb(0%, 0%, 0%)" stroke-opacity="1" stroke-miterlimit="10" d="M 69.8125 201.140625 C 69.8125 204.585938 64.644531 204.585938 64.644531 201.140625 C 64.644531 197.691406 69.8125 197.691406 69.8125 201.140625 "/>
<path fill-rule="nonzero" fill="rgb(0%, 0%, 0%)" fill-opacity="1" stroke-width="0.901933" stroke-linecap="round" stroke-linejoin="round" stroke="rgb(0%, 0%, 0%)" stroke-opacity="1" stroke-miterlimit="10" d="M 77.476562 187.371094 C 77.476562 190.816406 72.308594 190.816406 72.308594 187.371094 C 72.308594 183.921875 77.476562 183.921875 77.476562 187.371094 "/>
<path fill-rule="nonzero" fill="rgb(0%, 0%, 0%)" fill-opacity="1" stroke-width="0.901933" stroke-linecap="round" stroke-linejoin="round" stroke="rgb(0%, 0%, 0%)" stroke-opacity="1" stroke-miterlimit="10" d="M 132.402344 145.003906 C 132.402344 148.449219 127.230469 148.449219 127.230469 145.003906 C 127.230469 141.554688 132.402344 141.554688 132.402344 145.003906 "/>
<path fill-rule="nonzero" fill="rgb(0%, 0%, 0%)" fill-opacity="1" stroke-width="0.901933" stroke-linecap="round" stroke-linejoin="round" stroke="rgb(0%, 0%, 0%)" stroke-opacity="1" stroke-miterlimit="10" d="M 131.125 117.464844 C 131.125 120.910156 125.953125 120.910156 125.953125 117.464844 C 125.953125 114.015625 131.125 114.015625 131.125 117.464844 "/>
<path fill-rule="nonzero" fill="rgb(0%, 0%, 0%)" fill-opacity="1" stroke-width="0.901933" stroke-linecap="round" stroke-linejoin="round" stroke="rgb(0%, 0%, 0%)" stroke-opacity="1" stroke-miterlimit="10" d="M 159.863281 103.695312 C 159.863281 107.140625 154.691406 107.140625 154.691406 103.695312 C 154.691406 100.246094 159.863281 100.246094 159.863281 103.695312 "/>
<path fill-rule="nonzero" fill="rgb(0%, 0%, 0%)" fill-opacity="1" stroke-width="0.901933" stroke-linecap="round" stroke-linejoin="round" stroke="rgb(0%, 0%, 0%)" stroke-opacity="1" stroke-miterlimit="10" d="M 73.007812 182.074219 C 73.007812 185.519531 67.835938 185.519531 67.835938 182.074219 C 67.835938 178.628906 73.007812 178.628906 73.007812 182.074219 "/>
<path fill-rule="nonzero" fill="rgb(0%, 0%, 0%)" fill-opacity="1" stroke-width="0.901933" stroke-linecap="round" stroke-linejoin="round" stroke="rgb(0%, 0%, 0%)" stroke-opacity="1" stroke-miterlimit="10" d="M 140.703125 89.925781 C 140.703125 93.371094 135.535156 93.371094 135.535156 89.925781 C 135.535156 86.476562 140.703125 86.476562 140.703125 89.925781 "/>
<path fill-rule="nonzero" fill="rgb(0%, 0%, 0%)" fill-opacity="1" stroke-width="0.901933" stroke-linecap="round" stroke-linejoin="round" stroke="rgb(0%, 0%, 0%)" stroke-opacity="1" stroke-miterlimit="10" d="M 142.617188 117.464844 C 142.617188 120.910156 137.449219 120.910156 137.449219 117.464844 C 137.449219 114.015625 142.617188 114.015625 142.617188 117.464844 "/>
<path fill-rule="nonzero" fill="rgb(0%, 0%, 0%)" fill-opacity="1" stroke-width="0.901933" stroke-linecap="round" stroke-linejoin="round" stroke="rgb(0%, 0%, 0%)" stroke-opacity="1" stroke-miterlimit="10" d="M 163.695312 117.464844 C 163.695312 120.910156 158.523438 120.910156 158.523438 117.464844 C 158.523438 114.015625 163.695312 114.015625 163.695312 117.464844 "/>
<path fill-rule="nonzero" fill="rgb(0%, 0%, 0%)" fill-opacity="1" stroke-width="0.901933" stroke-linecap="round" stroke-linejoin="round" stroke="rgb(0%, 0%, 0%)" stroke-opacity="1" stroke-miterlimit="10" d="M 159.863281 146.0625 C 159.863281 149.507812 154.691406 149.507812 154.691406 146.0625 C 154.691406 142.613281 159.863281 142.613281 159.863281 146.0625 "/>
<path fill-rule="nonzero" fill="rgb(0%, 0%, 0%)" fill-opacity="1" stroke-width="0.901933" stroke-linecap="round" stroke-linejoin="round" stroke="rgb(0%, 0%, 0%)" stroke-opacity="1" stroke-miterlimit="10" d="M 185.40625 108.988281 C 185.40625 112.4375 180.238281 112.4375 180.238281 108.988281 C 180.238281 105.542969 185.40625 105.542969 185.40625 108.988281 "/>
<path fill-rule="nonzero" fill="rgb(60%, 60%, 60%)" fill-opacity="0.4" d="M 59.566406 154.792969 L 63.972656 153.570312 L 68.378906 152.339844 L 72.78125 151.101562 L 77.1875 149.851562 L 81.59375 148.59375 L 86 147.324219 L 90.40625 146.039062 L 94.8125 144.738281 L 99.21875 143.421875 L 103.625 142.089844 L 108.03125 140.734375 L 112.433594 139.359375 L 116.839844 137.960938 L 121.246094 136.539062 L 125.652344 135.085938 L 130.058594 133.609375 L 134.464844 132.105469 L 138.871094 130.570312 L 143.277344 129.003906 L 147.679688 127.410156 L 152.085938 125.789062 L 156.492188 124.144531 L 160.898438 122.472656 L 165.304688 120.773438 L 169.710938 119.058594 L 174.117188 117.320312 L 178.523438 115.5625 L 182.929688 113.792969 L 187.332031 112.003906 L 191.738281 110.203125 L 196.144531 108.390625 L 200.550781 106.566406 L 204.957031 104.734375 L 209.363281 102.890625 L 213.769531 101.042969 L 218.175781 99.183594 L 222.578125 97.320312 L 226.984375 95.453125 L 231.390625 93.578125 L 235.796875 91.699219 L 244.609375 87.925781 L 249.015625 86.035156 L 257.828125 82.246094 L 262.230469 80.34375 L 271.042969 76.539062 L 275.449219 74.632812 L 288.667969 68.902344 L 293.074219 66.988281 L 297.476562 65.074219 L 315.101562 57.402344 L 328.320312 51.636719 L 332.726562 49.710938 L 337.128906 47.789062 L 354.753906 40.085938 L 359.160156 38.15625 L 363.566406 36.230469 L 367.972656 34.300781 L 372.375 32.371094 L 394.40625 22.722656 L 398.8125 20.789062 L 403.21875 18.859375 L 407.625 16.925781 L 407.625 68.023438 L 403.21875 69.164062 L 398.8125 70.308594 L 394.40625 71.449219 L 390 72.59375 L 385.59375 73.734375 L 372.375 77.167969 L 367.972656 78.3125 L 354.753906 81.746094 L 337.128906 86.339844 L 332.726562 87.488281 L 328.320312 88.636719 L 310.695312 93.246094 L 297.476562 96.714844 L 293.074219 97.875 L 284.261719 100.195312 L 275.449219 102.523438 L 266.636719 104.859375 L 262.230469 106.03125 L 257.828125 107.207031 L 253.421875 108.382812 L 249.015625 109.5625 L 240.203125 111.929688 L 235.796875 113.121094 L 231.390625 114.316406 L 226.984375 115.515625 L 222.578125 116.71875 L 218.175781 117.929688 L 213.769531 119.144531 L 209.363281 120.371094 L 204.957031 121.601562 L 200.550781 122.839844 L 196.144531 124.089844 L 191.738281 125.351562 L 187.332031 126.625 L 182.929688 127.910156 L 178.523438 129.210938 L 174.117188 130.527344 L 169.710938 131.863281 L 165.304688 133.222656 L 160.898438 134.597656 L 156.492188 136 L 152.085938 137.425781 L 147.679688 138.878906 L 143.277344 140.359375 L 138.871094 141.867188 L 134.464844 143.40625 L 130.058594 144.972656 L 125.652344 146.570312 L 121.246094 148.195312 L 116.839844 149.84375 L 112.433594 151.519531 L 108.03125 153.21875 L 103.625 154.9375 L 99.21875 156.675781 L 94.8125 158.433594 L 90.40625 160.207031 L 86 161.996094 L 81.59375 163.800781 L 77.1875 165.613281 L 72.78125 167.4375 L 68.378906 169.273438 L 63.972656 171.117188 L 59.566406 172.96875 Z M 59.566406 154.792969 "/>
<path fill="none" stroke-width="2.715945" stroke-linecap="butt" stroke-linejoin="round" stroke="rgb(20%, 40%, 100%)" stroke-opacity="1" stroke-miterlimit="10" d="M 59.566406 163.878906 L 68.378906 160.808594 L 72.78125 159.269531 L 77.1875 157.734375 L 81.59375 156.195312 L 90.40625 153.125 L 94.8125 151.585938 L 99.21875 150.050781 L 103.625 148.511719 L 108.03125 146.976562 L 112.433594 145.4375 L 121.246094 142.367188 L 125.652344 140.828125 L 130.058594 139.292969 L 134.464844 137.753906 L 143.277344 134.683594 L 147.679688 133.144531 L 152.085938 131.609375 L 156.492188 130.070312 L 160.898438 128.535156 L 165.304688 126.996094 L 174.117188 123.925781 L 178.523438 122.386719 L 182.929688 120.851562 L 187.332031 119.3125 L 196.144531 116.242188 L 200.550781 114.703125 L 204.957031 113.167969 L 209.363281 111.628906 L 213.769531 110.09375 L 218.175781 108.554688 L 222.578125 107.019531 L 226.984375 105.484375 L 231.390625 103.945312 L 235.796875 102.410156 L 240.203125 100.871094 L 249.015625 97.800781 L 253.421875 96.261719 L 257.828125 94.726562 L 262.230469 93.1875 L 271.042969 90.117188 L 275.449219 88.578125 L 279.855469 87.042969 L 284.261719 85.503906 L 288.667969 83.96875 L 293.074219 82.429688 L 297.476562 80.894531 L 301.882812 79.359375 L 306.289062 77.820312 L 310.695312 76.285156 L 315.101562 74.746094 L 323.914062 71.675781 L 328.320312 70.136719 L 332.726562 68.601562 L 337.128906 67.0625 L 341.535156 65.527344 L 345.941406 63.988281 L 354.753906 60.917969 L 359.160156 59.378906 L 363.566406 57.84375 L 367.972656 56.304688 L 372.375 54.769531 L 376.78125 53.234375 L 381.1875 51.695312 L 385.59375 50.160156 L 390 48.621094 L 394.40625 47.085938 L 398.8125 45.546875 L 407.625 42.476562 "/>
<g clip-path="url(#clip-15)">
<path fill="none" stroke-width="1.357972" stroke-linecap="round" stroke-linejoin="round" stroke="rgb(20%, 20%, 20%)" stroke-opacity="1" stroke-miterlimit="10" d="M 42.164062 225.921875 L 425.027344 225.921875 L 425.027344 6.976562 L 42.164062 6.976562 Z M 42.164062 225.921875 "/>
</g>
<g fill="rgb(30.196078%, 30.196078%, 30.196078%)" fill-opacity="1">
<use xlink:href="#glyph-0-0" x="23.429688" y="211.503906"/>
<use xlink:href="#glyph-0-1" x="29.658594" y="211.503906"/>
</g>
<g fill="rgb(30.196078%, 30.196078%, 30.196078%)" fill-opacity="1">
<use xlink:href="#glyph-0-0" x="23.429688" y="158.542969"/>
<use xlink:href="#glyph-0-2" x="29.658594" y="158.542969"/>
</g>
<g fill="rgb(30.196078%, 30.196078%, 30.196078%)" fill-opacity="1">
<use xlink:href="#glyph-0-3" x="23.429688" y="105.585938"/>
<use xlink:href="#glyph-0-1" x="29.658594" y="105.585938"/>
</g>
<g fill="rgb(30.196078%, 30.196078%, 30.196078%)" fill-opacity="1">
<use xlink:href="#glyph-0-3" x="23.429688" y="52.625"/>
<use xlink:href="#glyph-0-2" x="29.658594" y="52.625"/>
</g>
<path fill="none" stroke-width="1.357972" stroke-linecap="butt" stroke-linejoin="round" stroke="rgb(20%, 20%, 20%)" stroke-opacity="1" stroke-miterlimit="10" d="M 38.675781 207.496094 L 42.164062 207.496094 "/>
<path fill="none" stroke-width="1.357972" stroke-linecap="butt" stroke-linejoin="round" stroke="rgb(20%, 20%, 20%)" stroke-opacity="1" stroke-miterlimit="10" d="M 38.675781 154.535156 L 42.164062 154.535156 "/>
<path fill="none" stroke-width="1.357972" stroke-linecap="butt" stroke-linejoin="round" stroke="rgb(20%, 20%, 20%)" stroke-opacity="1" stroke-miterlimit="10" d="M 38.675781 101.574219 L 42.164062 101.574219 "/>
<path fill="none" stroke-width="1.357972" stroke-linecap="butt" stroke-linejoin="round" stroke="rgb(20%, 20%, 20%)" stroke-opacity="1" stroke-miterlimit="10" d="M 38.675781 48.617188 L 42.164062 48.617188 "/>
<path fill="none" stroke-width="1.357972" stroke-linecap="butt" stroke-linejoin="round" stroke="rgb(20%, 20%, 20%)" stroke-opacity="1" stroke-miterlimit="10" d="M 140.035156 229.40625 L 140.035156 225.921875 "/>
<path fill="none" stroke-width="1.357972" stroke-linecap="butt" stroke-linejoin="round" stroke="rgb(20%, 20%, 20%)" stroke-opacity="1" stroke-miterlimit="10" d="M 267.761719 229.40625 L 267.761719 225.921875 "/>
<path fill="none" stroke-width="1.357972" stroke-linecap="butt" stroke-linejoin="round" stroke="rgb(20%, 20%, 20%)" stroke-opacity="1" stroke-miterlimit="10" d="M 395.488281 229.40625 L 395.488281 225.921875 "/>
<g fill="rgb(30.196078%, 30.196078%, 30.196078%)" fill-opacity="1">
<use xlink:href="#glyph-0-3" x="133.804688" y="240.214844"/>
<use xlink:href="#glyph-0-1" x="140.033594" y="240.214844"/>
</g>
<g fill="rgb(30.196078%, 30.196078%, 30.196078%)" fill-opacity="1">
<use xlink:href="#glyph-0-4" x="261.53125" y="240.214844"/>
<use xlink:href="#glyph-0-1" x="267.760156" y="240.214844"/>
</g>
<g fill="rgb(30.196078%, 30.196078%, 30.196078%)" fill-opacity="1">
<use xlink:href="#glyph-0-5" x="389.257812" y="240.214844"/>
<use xlink:href="#glyph-0-1" x="395.486719" y="240.214844"/>
</g>
<g fill="rgb(0%, 0%, 0%)" fill-opacity="1">
<use xlink:href="#glyph-1-0" x="217.644531" y="256.078125"/>
<use xlink:href="#glyph-1-1" x="226.982422" y="256.078125"/>
<use xlink:href="#glyph-1-2" x="231.644531" y="256.078125"/>
<use xlink:href="#glyph-1-3" x="234.754883" y="256.078125"/>
<use xlink:href="#glyph-1-4" x="241.754883" y="256.078125"/>
</g>
<g fill="rgb(0%, 0%, 0%)" fill-opacity="1">
<use xlink:href="#glyph-2-0" x="16.996094" y="172.867188"/>
<use xlink:href="#glyph-2-1" x="16.996094" y="164.31543"/>
<use xlink:href="#glyph-2-2" x="16.996094" y="156.529297"/>
<use xlink:href="#glyph-2-3" x="16.996094" y="148.743164"/>
<use xlink:href="#glyph-2-4" x="16.996094" y="145.632812"/>
<use xlink:href="#glyph-2-5" x="16.996094" y="141.743164"/>
<use xlink:href="#glyph-2-6" x="16.996094" y="137.853516"/>
<use xlink:href="#glyph-2-7" x="16.996094" y="130.067383"/>
<use xlink:href="#glyph-2-8" x="16.996094" y="122.28125"/>
<use xlink:href="#glyph-2-4" x="16.996094" y="115.28125"/>
<use xlink:href="#glyph-2-9" x="16.996094" y="111.391602"/>
<use xlink:href="#glyph-2-6" x="16.996094" y="104.391602"/>
<use xlink:href="#glyph-2-10" x="16.996094" y="96.605469"/>
<use xlink:href="#glyph-2-6" x="16.996094" y="88.819336"/>
<use xlink:href="#glyph-2-9" x="16.996094" y="81.033203"/>
<use xlink:href="#glyph-2-11" x="16.996094" y="74.033203"/>
<use xlink:href="#glyph-2-5" x="16.996094" y="70.922852"/>
<use xlink:href="#glyph-2-12" x="16.996094" y="67.033203"/>
</g>
</svg>
