<?xml version="1.0" encoding="UTF-8"?>
<svg xmlns="http://www.w3.org/2000/svg" xmlns:xlink="http://www.w3.org/1999/xlink" width="576pt" height="230pt" viewBox="0 0 576 230">
<defs>
<g>
<g id="glyph-0-0">
<path d="M 0.53125 -4.519531 C 0.527344 -5.597656 0.636719 -6.46875 0.863281 -7.132812 C 1.082031 -7.789062 1.414062 -8.300781 1.859375 -8.660156 C 2.296875 -9.019531 2.851562 -9.199219 3.519531 -9.199219 C 4.007812 -9.199219 4.4375 -9.097656 4.8125 -8.902344 C 5.179688 -8.699219 5.488281 -8.414062 5.730469 -8.046875 C 5.972656 -7.671875 6.160156 -7.21875 6.300781 -6.683594 C 6.433594 -6.148438 6.503906 -5.425781 6.507812 -4.519531 C 6.503906 -3.441406 6.394531 -2.574219 6.175781 -1.914062 C 5.953125 -1.253906 5.621094 -0.742188 5.183594 -0.382812 C 4.742188 -0.0234375 4.1875 0.152344 3.519531 0.15625 C 2.632812 0.152344 1.9375 -0.160156 1.4375 -0.792969 C 0.828125 -1.550781 0.527344 -2.792969 0.53125 -4.519531 Z M 1.6875 -4.519531 C 1.6875 -3.011719 1.863281 -2.011719 2.214844 -1.515625 C 2.566406 -1.015625 3 -0.765625 3.519531 -0.769531 C 4.03125 -0.765625 4.464844 -1.015625 4.820312 -1.519531 C 5.171875 -2.015625 5.347656 -3.015625 5.351562 -4.519531 C 5.347656 -6.023438 5.171875 -7.027344 4.820312 -7.523438 C 4.464844 -8.019531 4.027344 -8.265625 3.507812 -8.269531 C 2.988281 -8.265625 2.574219 -8.046875 2.269531 -7.613281 C 1.878906 -7.050781 1.6875 -6.019531 1.6875 -4.519531 Z M 1.6875 -4.519531 "/>
</g>
<g id="glyph-0-1">
<path d="M 6.445312 -1.082031 L 6.445312 0 L 0.386719 0 C 0.378906 -0.269531 0.421875 -0.527344 0.519531 -0.78125 C 0.671875 -1.1875 0.917969 -1.59375 1.257812 -2 C 1.597656 -2.398438 2.089844 -2.863281 2.730469 -3.386719 C 3.726562 -4.203125 4.398438 -4.847656 4.75 -5.328125 C 5.097656 -5.800781 5.273438 -6.253906 5.273438 -6.679688 C 5.273438 -7.125 5.113281 -7.5 4.796875 -7.808594 C 4.476562 -8.113281 4.0625 -8.265625 3.550781 -8.269531 C 3.007812 -8.265625 2.574219 -8.105469 2.25 -7.78125 C 1.921875 -7.453125 1.757812 -7 1.757812 -6.429688 L 0.601562 -6.550781 C 0.675781 -7.410156 0.972656 -8.066406 1.492188 -8.519531 C 2.007812 -8.972656 2.703125 -9.199219 3.574219 -9.199219 C 4.453125 -9.199219 5.148438 -8.953125 5.660156 -8.46875 C 6.171875 -7.976562 6.425781 -7.375 6.429688 -6.65625 C 6.425781 -6.289062 6.351562 -5.925781 6.203125 -5.574219 C 6.050781 -5.214844 5.800781 -4.84375 5.457031 -4.453125 C 5.105469 -4.0625 4.53125 -3.523438 3.726562 -2.84375 C 3.046875 -2.273438 2.609375 -1.890625 2.421875 -1.6875 C 2.226562 -1.484375 2.070312 -1.28125 1.949219 -1.082031 Z M 6.445312 -1.082031 "/>
</g>
<g id="glyph-0-2">
<path d="M 4.136719 0 L 4.136719 -2.195312 L 0.164062 -2.195312 L 0.164062 -3.226562 L 4.34375 -9.164062 L 5.261719 -9.164062 L 5.261719 -3.226562 L 6.5 -3.226562 L 6.5 -2.195312 L 5.261719 -2.195312 L 5.261719 0 Z M 4.136719 -3.226562 L 4.136719 -7.355469 L 1.269531 -3.226562 Z M 4.136719 -3.226562 "/>
</g>
<g id="glyph-0-3">
<path d="M 6.367188 -6.917969 L 5.25 -6.832031 C 5.148438 -7.269531 5.003906 -7.589844 4.824219 -7.792969 C 4.515625 -8.113281 4.140625 -8.273438 3.699219 -8.273438 C 3.339844 -8.273438 3.027344 -8.171875 2.757812 -7.976562 C 2.402344 -7.710938 2.121094 -7.335938 1.917969 -6.84375 C 1.710938 -6.347656 1.605469 -5.640625 1.601562 -4.726562 C 1.867188 -5.136719 2.199219 -5.441406 2.59375 -5.644531 C 2.980469 -5.839844 3.390625 -5.941406 3.824219 -5.945312 C 4.570312 -5.941406 5.207031 -5.664062 5.738281 -5.117188 C 6.261719 -4.5625 6.527344 -3.851562 6.53125 -2.976562 C 6.527344 -2.398438 6.402344 -1.863281 6.160156 -1.371094 C 5.910156 -0.878906 5.570312 -0.5 5.136719 -0.238281 C 4.703125 0.0234375 4.210938 0.152344 3.664062 0.15625 C 2.722656 0.152344 1.957031 -0.191406 1.367188 -0.878906 C 0.773438 -1.566406 0.480469 -2.703125 0.480469 -4.289062 C 0.480469 -6.058594 0.804688 -7.34375 1.460938 -8.148438 C 2.03125 -8.847656 2.800781 -9.199219 3.769531 -9.199219 C 4.488281 -9.199219 5.078125 -8.996094 5.539062 -8.59375 C 5.996094 -8.1875 6.273438 -7.628906 6.367188 -6.917969 Z M 1.773438 -2.96875 C 1.769531 -2.578125 1.851562 -2.207031 2.019531 -1.855469 C 2.183594 -1.5 2.414062 -1.230469 2.710938 -1.046875 C 3.003906 -0.859375 3.316406 -0.765625 3.644531 -0.769531 C 4.117188 -0.765625 4.523438 -0.957031 4.867188 -1.34375 C 5.207031 -1.722656 5.378906 -2.246094 5.382812 -2.90625 C 5.378906 -3.539062 5.210938 -4.035156 4.875 -4.402344 C 4.535156 -4.761719 4.109375 -4.945312 3.601562 -4.949219 C 3.089844 -4.945312 2.65625 -4.761719 2.304688 -4.402344 C 1.945312 -4.035156 1.769531 -3.558594 1.773438 -2.96875 Z M 1.773438 -2.96875 "/>
</g>
<g id="glyph-0-4">
<path d="M 1.050781 0 L 1.050781 -9.164062 L 7.230469 -9.164062 L 7.230469 -8.082031 L 2.261719 -8.082031 L 2.261719 -5.242188 L 6.5625 -5.242188 L 6.5625 -4.164062 L 2.261719 -4.164062 L 2.261719 0 Z M 1.050781 0 "/>
</g>
<g id="glyph-0-5">
<path d="M 5.386719 -2.136719 L 6.550781 -1.992188 C 6.363281 -1.3125 6.023438 -0.785156 5.53125 -0.414062 C 5.035156 -0.0390625 4.402344 0.144531 3.632812 0.148438 C 2.660156 0.144531 1.886719 -0.148438 1.320312 -0.746094 C 0.75 -1.339844 0.46875 -2.179688 0.46875 -3.261719 C 0.46875 -4.375 0.753906 -5.242188 1.332031 -5.863281 C 1.902344 -6.476562 2.648438 -6.785156 3.570312 -6.789062 C 4.453125 -6.785156 5.179688 -6.484375 5.742188 -5.882812 C 6.304688 -5.277344 6.585938 -4.425781 6.585938 -3.332031 C 6.585938 -3.261719 6.582031 -3.160156 6.582031 -3.03125 L 1.632812 -3.03125 C 1.671875 -2.296875 1.878906 -1.738281 2.25 -1.355469 C 2.617188 -0.964844 3.078125 -0.773438 3.636719 -0.773438 C 4.046875 -0.773438 4.398438 -0.878906 4.695312 -1.097656 C 4.984375 -1.3125 5.214844 -1.660156 5.386719 -2.136719 Z M 1.695312 -3.957031 L 5.398438 -3.957031 C 5.34375 -4.511719 5.203125 -4.929688 4.976562 -5.210938 C 4.613281 -5.640625 4.148438 -5.859375 3.582031 -5.863281 C 3.058594 -5.859375 2.625 -5.6875 2.277344 -5.34375 C 1.921875 -4.996094 1.726562 -4.53125 1.695312 -3.957031 Z M 1.695312 -3.957031 "/>
</g>
<g id="glyph-0-6">
<path d="M 0.832031 0 L 0.832031 -6.636719 L 1.84375 -6.636719 L 1.84375 -5.632812 C 2.097656 -6.097656 2.335938 -6.410156 2.558594 -6.5625 C 2.773438 -6.710938 3.015625 -6.785156 3.28125 -6.789062 C 3.660156 -6.785156 4.042969 -6.664062 4.4375 -6.425781 L 4.050781 -5.382812 C 3.769531 -5.542969 3.496094 -5.625 3.226562 -5.625 C 2.976562 -5.625 2.753906 -5.550781 2.5625 -5.402344 C 2.363281 -5.253906 2.226562 -5.046875 2.144531 -4.789062 C 2.019531 -4.382812 1.957031 -3.945312 1.957031 -3.476562 L 1.957031 0 Z M 0.832031 0 "/>
</g>
<g id="glyph-0-7">
<path d="M 5.148438 0 L 5.148438 -0.835938 C 4.726562 -0.179688 4.109375 0.144531 3.292969 0.148438 C 2.761719 0.144531 2.273438 0.00390625 1.832031 -0.289062 C 1.386719 -0.578125 1.042969 -0.984375 0.800781 -1.507812 C 0.554688 -2.027344 0.433594 -2.628906 0.4375 -3.3125 C 0.433594 -3.96875 0.542969 -4.570312 0.769531 -5.113281 C 0.988281 -5.652344 1.320312 -6.066406 1.761719 -6.355469 C 2.203125 -6.640625 2.695312 -6.785156 3.242188 -6.789062 C 3.640625 -6.785156 4 -6.699219 4.3125 -6.535156 C 4.625 -6.363281 4.878906 -6.144531 5.074219 -5.875 L 5.074219 -9.164062 L 6.195312 -9.164062 L 6.195312 0 Z M 1.59375 -3.3125 C 1.59375 -2.460938 1.769531 -1.828125 2.128906 -1.40625 C 2.484375 -0.984375 2.910156 -0.773438 3.398438 -0.773438 C 3.890625 -0.773438 4.308594 -0.972656 4.652344 -1.375 C 4.996094 -1.777344 5.167969 -2.390625 5.167969 -3.21875 C 5.167969 -4.125 4.992188 -4.792969 4.640625 -5.21875 C 4.289062 -5.640625 3.859375 -5.851562 3.351562 -5.855469 C 2.851562 -5.851562 2.433594 -5.648438 2.097656 -5.242188 C 1.761719 -4.832031 1.59375 -4.1875 1.59375 -3.3125 Z M 1.59375 -3.3125 "/>
</g>
<g id="glyph-0-8">
<path d="M 0.851562 -7.867188 L 0.851562 -9.164062 L 1.976562 -9.164062 L 1.976562 -7.867188 Z M 0.851562 0 L 0.851562 -6.636719 L 1.976562 -6.636719 L 1.976562 0 Z M 0.851562 0 "/>
</g>
<g id="glyph-0-9">
<path d="M 0.84375 0 L 0.84375 -6.636719 L 1.855469 -6.636719 L 1.855469 -5.695312 C 2.339844 -6.421875 3.042969 -6.785156 3.96875 -6.789062 C 4.367188 -6.785156 4.734375 -6.710938 5.070312 -6.570312 C 5.402344 -6.421875 5.65625 -6.234375 5.824219 -6.003906 C 5.988281 -5.769531 6.105469 -5.492188 6.175781 -5.175781 C 6.214844 -4.964844 6.234375 -4.601562 6.238281 -4.082031 L 6.238281 0 L 5.113281 0 L 5.113281 -4.039062 C 5.109375 -4.492188 5.066406 -4.835938 4.980469 -5.066406 C 4.894531 -5.289062 4.738281 -5.46875 4.515625 -5.609375 C 4.289062 -5.742188 4.027344 -5.8125 3.730469 -5.8125 C 3.25 -5.8125 2.835938 -5.660156 2.488281 -5.355469 C 2.140625 -5.050781 1.96875 -4.472656 1.96875 -3.625 L 1.96875 0 Z M 0.84375 0 "/>
</g>
<g id="glyph-0-10">
<path d="M 5.175781 -0.820312 C 4.753906 -0.464844 4.355469 -0.214844 3.972656 -0.0703125 C 3.585938 0.0742188 3.171875 0.144531 2.730469 0.148438 C 2 0.144531 1.4375 -0.0273438 1.046875 -0.382812 C 0.652344 -0.734375 0.457031 -1.191406 0.460938 -1.75 C 0.457031 -2.074219 0.53125 -2.371094 0.683594 -2.640625 C 0.828125 -2.90625 1.023438 -3.121094 1.265625 -3.285156 C 1.503906 -3.445312 1.773438 -3.570312 2.074219 -3.65625 C 2.292969 -3.710938 2.625 -3.765625 3.074219 -3.824219 C 3.980469 -3.929688 4.648438 -4.058594 5.082031 -4.210938 C 5.082031 -4.363281 5.085938 -4.460938 5.085938 -4.507812 C 5.085938 -4.960938 4.980469 -5.285156 4.769531 -5.476562 C 4.480469 -5.726562 4.050781 -5.851562 3.488281 -5.855469 C 2.957031 -5.851562 2.566406 -5.761719 2.316406 -5.578125 C 2.058594 -5.390625 1.875 -5.0625 1.757812 -4.59375 L 0.65625 -4.742188 C 0.753906 -5.210938 0.917969 -5.59375 1.148438 -5.882812 C 1.375 -6.171875 1.703125 -6.394531 2.140625 -6.554688 C 2.570312 -6.707031 3.074219 -6.785156 3.648438 -6.789062 C 4.214844 -6.785156 4.675781 -6.71875 5.03125 -6.585938 C 5.382812 -6.453125 5.644531 -6.285156 5.8125 -6.082031 C 5.976562 -5.878906 6.09375 -5.625 6.164062 -5.320312 C 6.199219 -5.125 6.214844 -4.777344 6.21875 -4.28125 L 6.21875 -2.78125 C 6.214844 -1.730469 6.238281 -1.070312 6.289062 -0.796875 C 6.335938 -0.519531 6.433594 -0.253906 6.574219 0 L 5.398438 0 C 5.28125 -0.234375 5.207031 -0.507812 5.175781 -0.820312 Z M 5.082031 -3.332031 C 4.667969 -3.164062 4.054688 -3.023438 3.242188 -2.90625 C 2.777344 -2.835938 2.453125 -2.757812 2.261719 -2.679688 C 2.070312 -2.59375 1.921875 -2.472656 1.820312 -2.3125 C 1.714844 -2.152344 1.664062 -1.976562 1.664062 -1.78125 C 1.664062 -1.480469 1.777344 -1.230469 2.003906 -1.03125 C 2.230469 -0.828125 2.5625 -0.726562 3 -0.730469 C 3.429688 -0.726562 3.8125 -0.820312 4.15625 -1.015625 C 4.492188 -1.203125 4.742188 -1.464844 4.898438 -1.792969 C 5.019531 -2.046875 5.078125 -2.421875 5.082031 -2.917969 Z M 5.082031 -3.332031 "/>
</g>
<g id="glyph-0-11">
<path d="M 5.273438 -3.59375 L 5.273438 -4.667969 L 9.15625 -4.675781 L 9.15625 -1.273438 C 8.558594 -0.796875 7.945312 -0.441406 7.3125 -0.203125 C 6.679688 0.0351562 6.027344 0.152344 5.363281 0.15625 C 4.457031 0.152344 3.640625 -0.0390625 2.90625 -0.421875 C 2.171875 -0.804688 1.617188 -1.359375 1.242188 -2.09375 C 0.867188 -2.820312 0.679688 -3.636719 0.679688 -4.539062 C 0.679688 -5.425781 0.863281 -6.257812 1.238281 -7.035156 C 1.609375 -7.804688 2.148438 -8.378906 2.847656 -8.757812 C 3.546875 -9.128906 4.351562 -9.316406 5.269531 -9.320312 C 5.925781 -9.316406 6.523438 -9.207031 7.0625 -8.996094 C 7.59375 -8.777344 8.015625 -8.480469 8.324219 -8.097656 C 8.625 -7.714844 8.855469 -7.214844 9.019531 -6.601562 L 7.925781 -6.300781 C 7.785156 -6.761719 7.613281 -7.128906 7.410156 -7.398438 C 7.203125 -7.664062 6.910156 -7.878906 6.535156 -8.039062 C 6.152344 -8.199219 5.734375 -8.277344 5.273438 -8.28125 C 4.71875 -8.277344 4.238281 -8.195312 3.835938 -8.027344 C 3.429688 -7.855469 3.105469 -7.632812 2.859375 -7.359375 C 2.609375 -7.085938 2.414062 -6.785156 2.28125 -6.457031 C 2.042969 -5.886719 1.925781 -5.269531 1.929688 -4.613281 C 1.925781 -3.792969 2.066406 -3.109375 2.351562 -2.5625 C 2.628906 -2.007812 3.039062 -1.601562 3.578125 -1.335938 C 4.113281 -1.070312 4.683594 -0.9375 5.292969 -0.9375 C 5.816406 -0.9375 6.332031 -1.035156 6.832031 -1.238281 C 7.332031 -1.4375 7.710938 -1.65625 7.96875 -1.886719 L 7.96875 -3.59375 Z M 5.273438 -3.59375 "/>
</g>
<g id="glyph-0-12">
<path d="M 3.300781 -1.007812 L 3.460938 -0.0117188 C 3.144531 0.0507812 2.863281 0.0820312 2.613281 0.0859375 C 2.203125 0.0820312 1.882812 0.0195312 1.660156 -0.105469 C 1.433594 -0.234375 1.277344 -0.402344 1.1875 -0.613281 C 1.09375 -0.820312 1.046875 -1.265625 1.050781 -1.945312 L 1.050781 -5.761719 L 0.226562 -5.761719 L 0.226562 -6.636719 L 1.050781 -6.636719 L 1.050781 -8.28125 L 2.167969 -8.957031 L 2.167969 -6.636719 L 3.300781 -6.636719 L 3.300781 -5.761719 L 2.167969 -5.761719 L 2.167969 -1.882812 C 2.167969 -1.554688 2.1875 -1.347656 2.226562 -1.261719 C 2.265625 -1.167969 2.328125 -1.097656 2.421875 -1.042969 C 2.507812 -0.988281 2.636719 -0.960938 2.804688 -0.960938 C 2.925781 -0.960938 3.089844 -0.976562 3.300781 -1.007812 Z M 3.300781 -1.007812 "/>
</g>
<g id="glyph-0-13">
<path d="M 0.394531 -1.980469 L 1.507812 -2.15625 C 1.566406 -1.710938 1.742188 -1.367188 2.027344 -1.128906 C 2.3125 -0.890625 2.710938 -0.773438 3.226562 -0.773438 C 3.738281 -0.773438 4.121094 -0.878906 4.375 -1.089844 C 4.621094 -1.300781 4.746094 -1.546875 4.75 -1.832031 C 4.746094 -2.082031 4.636719 -2.28125 4.417969 -2.429688 C 4.261719 -2.527344 3.878906 -2.65625 3.269531 -2.8125 C 2.441406 -3.019531 1.867188 -3.199219 1.550781 -3.351562 C 1.230469 -3.503906 0.988281 -3.714844 0.828125 -3.984375 C 0.660156 -4.25 0.578125 -4.546875 0.582031 -4.875 C 0.578125 -5.171875 0.648438 -5.445312 0.785156 -5.695312 C 0.917969 -5.945312 1.101562 -6.152344 1.335938 -6.324219 C 1.511719 -6.449219 1.75 -6.558594 2.054688 -6.652344 C 2.355469 -6.738281 2.679688 -6.785156 3.023438 -6.789062 C 3.542969 -6.785156 4 -6.710938 4.394531 -6.5625 C 4.789062 -6.410156 5.078125 -6.207031 5.269531 -5.953125 C 5.453125 -5.695312 5.582031 -5.351562 5.65625 -4.925781 L 4.554688 -4.773438 C 4.5 -5.113281 4.355469 -5.378906 4.121094 -5.574219 C 3.878906 -5.761719 3.542969 -5.859375 3.105469 -5.863281 C 2.589844 -5.859375 2.21875 -5.773438 2 -5.605469 C 1.773438 -5.433594 1.664062 -5.234375 1.667969 -5.007812 C 1.664062 -4.859375 1.710938 -4.726562 1.804688 -4.613281 C 1.898438 -4.488281 2.042969 -4.390625 2.238281 -4.3125 C 2.347656 -4.269531 2.675781 -4.171875 3.230469 -4.023438 C 4.023438 -3.808594 4.578125 -3.636719 4.894531 -3.503906 C 5.207031 -3.367188 5.457031 -3.167969 5.636719 -2.910156 C 5.816406 -2.648438 5.90625 -2.328125 5.90625 -1.949219 C 5.90625 -1.570312 5.796875 -1.21875 5.578125 -0.890625 C 5.359375 -0.558594 5.042969 -0.300781 4.628906 -0.121094 C 4.214844 0.0585938 3.746094 0.144531 3.230469 0.148438 C 2.363281 0.144531 1.707031 -0.03125 1.257812 -0.386719 C 0.804688 -0.746094 0.515625 -1.277344 0.394531 -1.980469 Z M 0.394531 -1.980469 "/>
</g>
<g id="glyph-0-14">
</g>
<g id="glyph-0-15">
<path d="M 0.574219 -2.945312 L 1.71875 -3.042969 C 1.769531 -2.582031 1.898438 -2.207031 2.097656 -1.914062 C 2.292969 -1.621094 2.597656 -1.382812 3.019531 -1.203125 C 3.433594 -1.015625 3.902344 -0.925781 4.425781 -0.929688 C 4.882812 -0.925781 5.292969 -0.996094 5.648438 -1.136719 C 6 -1.273438 6.261719 -1.460938 6.4375 -1.703125 C 6.609375 -1.941406 6.695312 -2.203125 6.699219 -2.488281 C 6.695312 -2.773438 6.613281 -3.023438 6.449219 -3.238281 C 6.28125 -3.453125 6.007812 -3.632812 5.625 -3.78125 C 5.378906 -3.875 4.832031 -4.023438 3.992188 -4.226562 C 3.148438 -4.425781 2.5625 -4.617188 2.226562 -4.800781 C 1.789062 -5.027344 1.460938 -5.3125 1.246094 -5.652344 C 1.03125 -5.992188 0.925781 -6.371094 0.925781 -6.792969 C 0.925781 -7.253906 1.054688 -7.6875 1.316406 -8.089844 C 1.578125 -8.492188 1.960938 -8.796875 2.46875 -9.007812 C 2.96875 -9.210938 3.53125 -9.316406 4.148438 -9.320312 C 4.828125 -9.316406 5.425781 -9.207031 5.945312 -8.992188 C 6.464844 -8.769531 6.863281 -8.445312 7.144531 -8.023438 C 7.417969 -7.59375 7.570312 -7.113281 7.59375 -6.582031 L 6.429688 -6.492188 C 6.363281 -7.070312 6.152344 -7.507812 5.796875 -7.804688 C 5.433594 -8.101562 4.902344 -8.25 4.199219 -8.25 C 3.464844 -8.25 2.929688 -8.113281 2.597656 -7.847656 C 2.257812 -7.574219 2.089844 -7.25 2.09375 -6.875 C 2.089844 -6.542969 2.210938 -6.273438 2.449219 -6.0625 C 2.683594 -5.847656 3.292969 -5.628906 4.277344 -5.40625 C 5.261719 -5.183594 5.9375 -4.988281 6.304688 -4.824219 C 6.835938 -4.574219 7.226562 -4.265625 7.484375 -3.890625 C 7.734375 -3.511719 7.863281 -3.074219 7.867188 -2.585938 C 7.863281 -2.09375 7.722656 -1.636719 7.449219 -1.207031 C 7.167969 -0.777344 6.769531 -0.441406 6.246094 -0.203125 C 5.722656 0.0351562 5.132812 0.152344 4.480469 0.15625 C 3.648438 0.152344 2.953125 0.0351562 2.394531 -0.207031 C 1.832031 -0.445312 1.394531 -0.808594 1.078125 -1.296875 C 0.757812 -1.777344 0.589844 -2.328125 0.574219 -2.945312 Z M 0.574219 -2.945312 "/>
</g>
<g id="glyph-0-16">
<path d="M 0.84375 0 L 0.84375 -9.164062 L 1.96875 -9.164062 L 1.96875 -5.875 C 2.492188 -6.480469 3.152344 -6.785156 3.957031 -6.789062 C 4.445312 -6.785156 4.875 -6.6875 5.238281 -6.496094 C 5.597656 -6.300781 5.855469 -6.03125 6.015625 -5.691406 C 6.167969 -5.347656 6.246094 -4.855469 6.25 -4.207031 L 6.25 0 L 5.125 0 L 5.125 -4.207031 C 5.121094 -4.769531 5 -5.175781 4.757812 -5.433594 C 4.515625 -5.6875 4.171875 -5.816406 3.726562 -5.820312 C 3.390625 -5.816406 3.074219 -5.730469 2.785156 -5.558594 C 2.488281 -5.382812 2.28125 -5.148438 2.15625 -4.855469 C 2.03125 -4.558594 1.96875 -4.152344 1.96875 -3.632812 L 1.96875 0 Z M 0.84375 0 "/>
</g>
<g id="glyph-0-17">
<path d="M 0.425781 -3.320312 C 0.421875 -4.546875 0.761719 -5.457031 1.449219 -6.050781 C 2.015625 -6.539062 2.714844 -6.785156 3.539062 -6.789062 C 4.449219 -6.785156 5.191406 -6.484375 5.773438 -5.890625 C 6.351562 -5.289062 6.644531 -4.464844 6.644531 -3.414062 C 6.644531 -2.558594 6.515625 -1.886719 6.257812 -1.398438 C 6 -0.90625 5.625 -0.527344 5.140625 -0.257812 C 4.648438 0.0117188 4.117188 0.144531 3.539062 0.148438 C 2.609375 0.144531 1.855469 -0.148438 1.285156 -0.742188 C 0.707031 -1.335938 0.421875 -2.195312 0.425781 -3.320312 Z M 1.582031 -3.320312 C 1.582031 -2.464844 1.765625 -1.828125 2.136719 -1.40625 C 2.507812 -0.984375 2.976562 -0.773438 3.539062 -0.773438 C 4.09375 -0.773438 4.554688 -0.984375 4.929688 -1.410156 C 5.296875 -1.835938 5.484375 -2.484375 5.488281 -3.355469 C 5.484375 -4.171875 5.296875 -4.792969 4.925781 -5.21875 C 4.550781 -5.640625 4.089844 -5.851562 3.539062 -5.855469 C 2.976562 -5.851562 2.507812 -5.640625 2.136719 -5.222656 C 1.765625 -4.800781 1.582031 -4.167969 1.582031 -3.320312 Z M 1.582031 -3.320312 "/>
</g>
<g id="glyph-0-18">
<path d="M 2.070312 0 L 0.0390625 -6.636719 L 1.199219 -6.636719 L 2.257812 -2.804688 L 2.648438 -1.382812 C 2.664062 -1.453125 2.777344 -1.90625 2.992188 -2.75 L 4.050781 -6.636719 L 5.207031 -6.636719 L 6.199219 -2.789062 L 6.53125 -1.519531 L 6.914062 -2.800781 L 8.050781 -6.636719 L 9.144531 -6.636719 L 7.070312 0 L 5.898438 0 L 4.84375 -3.976562 L 4.585938 -5.105469 L 3.242188 0 Z M 2.070312 0 "/>
</g>
<g id="glyph-0-19">
<path d="M 0.84375 0 L 0.84375 -6.636719 L 1.851562 -6.636719 L 1.851562 -5.707031 C 2.058594 -6.03125 2.332031 -6.292969 2.679688 -6.492188 C 3.023438 -6.6875 3.417969 -6.785156 3.863281 -6.789062 C 4.351562 -6.785156 4.753906 -6.683594 5.070312 -6.480469 C 5.382812 -6.277344 5.605469 -5.992188 5.738281 -5.625 C 6.257812 -6.398438 6.941406 -6.785156 7.789062 -6.789062 C 8.441406 -6.785156 8.949219 -6.601562 9.304688 -6.242188 C 9.65625 -5.875 9.832031 -5.3125 9.835938 -4.554688 L 9.835938 0 L 8.71875 0 L 8.71875 -4.179688 C 8.71875 -4.625 8.679688 -4.949219 8.609375 -5.152344 C 8.53125 -5.347656 8.398438 -5.507812 8.210938 -5.628906 C 8.015625 -5.75 7.792969 -5.8125 7.539062 -5.8125 C 7.066406 -5.8125 6.679688 -5.65625 6.375 -5.347656 C 6.066406 -5.035156 5.910156 -4.539062 5.914062 -3.855469 L 5.914062 0 L 4.789062 0 L 4.789062 -4.3125 C 4.785156 -4.8125 4.695312 -5.1875 4.511719 -5.4375 C 4.328125 -5.6875 4.027344 -5.8125 3.613281 -5.8125 C 3.292969 -5.8125 3 -5.726562 2.734375 -5.5625 C 2.464844 -5.390625 2.269531 -5.148438 2.148438 -4.832031 C 2.027344 -4.507812 1.96875 -4.046875 1.96875 -3.445312 L 1.96875 0 Z M 0.84375 0 "/>
</g>
<g id="glyph-0-20">
<path d="M 0.988281 0 L 0.988281 -9.164062 L 4.445312 -9.164062 C 5.050781 -9.164062 5.515625 -9.132812 5.835938 -9.074219 C 6.285156 -8.996094 6.660156 -8.851562 6.96875 -8.644531 C 7.269531 -8.433594 7.515625 -8.140625 7.703125 -7.761719 C 7.886719 -7.382812 7.980469 -6.964844 7.980469 -6.511719 C 7.980469 -5.730469 7.730469 -5.074219 7.234375 -4.535156 C 6.738281 -3.996094 5.84375 -3.726562 4.550781 -3.726562 L 2.199219 -3.726562 L 2.199219 0 Z M 2.199219 -4.804688 L 4.570312 -4.804688 C 5.351562 -4.804688 5.90625 -4.949219 6.234375 -5.242188 C 6.5625 -5.53125 6.726562 -5.941406 6.730469 -6.476562 C 6.726562 -6.855469 6.628906 -7.183594 6.4375 -7.457031 C 6.242188 -7.726562 5.988281 -7.90625 5.675781 -8 C 5.46875 -8.050781 5.089844 -8.078125 4.542969 -8.082031 L 2.199219 -8.082031 Z M 2.199219 -4.804688 "/>
</g>
<g id="glyph-0-21">
<path d="M 5.175781 -2.429688 L 6.28125 -2.289062 C 6.160156 -1.523438 5.847656 -0.925781 5.351562 -0.496094 C 4.851562 -0.0664062 4.242188 0.144531 3.519531 0.148438 C 2.609375 0.144531 1.878906 -0.148438 1.328125 -0.742188 C 0.773438 -1.332031 0.496094 -2.183594 0.5 -3.292969 C 0.496094 -4.007812 0.617188 -4.632812 0.855469 -5.171875 C 1.089844 -5.707031 1.449219 -6.109375 1.9375 -6.382812 C 2.421875 -6.648438 2.949219 -6.785156 3.523438 -6.789062 C 4.242188 -6.785156 4.832031 -6.601562 5.292969 -6.242188 C 5.746094 -5.875 6.042969 -5.359375 6.175781 -4.6875 L 5.082031 -4.519531 C 4.972656 -4.960938 4.789062 -5.296875 4.527344 -5.523438 C 4.261719 -5.746094 3.941406 -5.859375 3.570312 -5.863281 C 3 -5.859375 2.539062 -5.65625 2.1875 -5.253906 C 1.828125 -4.84375 1.652344 -4.199219 1.65625 -3.324219 C 1.652344 -2.429688 1.824219 -1.78125 2.167969 -1.378906 C 2.507812 -0.972656 2.953125 -0.773438 3.507812 -0.773438 C 3.945312 -0.773438 4.3125 -0.90625 4.609375 -1.179688 C 4.902344 -1.445312 5.089844 -1.863281 5.175781 -2.429688 Z M 5.175781 -2.429688 "/>
</g>
<g id="glyph-0-22">
<path d="M 1.113281 0 L 1.113281 -5.761719 L 0.117188 -5.761719 L 0.117188 -6.636719 L 1.113281 -6.636719 L 1.113281 -7.34375 C 1.113281 -7.785156 1.152344 -8.117188 1.230469 -8.335938 C 1.339844 -8.625 1.527344 -8.863281 1.800781 -9.046875 C 2.070312 -9.226562 2.453125 -9.316406 2.949219 -9.320312 C 3.261719 -9.316406 3.613281 -9.277344 4 -9.207031 L 3.832031 -8.226562 C 3.597656 -8.265625 3.375 -8.285156 3.167969 -8.289062 C 2.824219 -8.285156 2.582031 -8.210938 2.441406 -8.070312 C 2.296875 -7.921875 2.226562 -7.648438 2.230469 -7.25 L 2.230469 -6.636719 L 3.523438 -6.636719 L 3.523438 -5.761719 L 2.230469 -5.761719 L 2.230469 0 Z M 1.113281 0 "/>
</g>
<g id="glyph-0-23">
<path d="M 0.539062 -2.417969 L 1.664062 -2.570312 C 1.789062 -1.929688 2.007812 -1.46875 2.320312 -1.191406 C 2.632812 -0.90625 3.011719 -0.765625 3.457031 -0.769531 C 3.984375 -0.765625 4.429688 -0.949219 4.796875 -1.316406 C 5.160156 -1.679688 5.34375 -2.132812 5.34375 -2.679688 C 5.34375 -3.195312 5.171875 -3.621094 4.835938 -3.957031 C 4.496094 -4.289062 4.070312 -4.457031 3.550781 -4.460938 C 3.335938 -4.457031 3.070312 -4.417969 2.757812 -4.335938 L 2.882812 -5.324219 C 2.953125 -5.3125 3.011719 -5.308594 3.0625 -5.3125 C 3.539062 -5.308594 3.96875 -5.433594 4.355469 -5.6875 C 4.734375 -5.933594 4.925781 -6.320312 4.929688 -6.84375 C 4.925781 -7.253906 4.789062 -7.59375 4.511719 -7.867188 C 4.230469 -8.136719 3.867188 -8.273438 3.429688 -8.273438 C 2.988281 -8.273438 2.625 -8.132812 2.335938 -7.859375 C 2.042969 -7.582031 1.855469 -7.171875 1.773438 -6.625 L 0.648438 -6.824219 C 0.785156 -7.578125 1.097656 -8.164062 1.585938 -8.578125 C 2.074219 -8.992188 2.679688 -9.199219 3.40625 -9.199219 C 3.902344 -9.199219 4.363281 -9.089844 4.785156 -8.875 C 5.203125 -8.660156 5.523438 -8.367188 5.75 -8 C 5.96875 -7.625 6.082031 -7.234375 6.085938 -6.820312 C 6.082031 -6.421875 5.976562 -6.058594 5.765625 -5.738281 C 5.554688 -5.410156 5.238281 -5.152344 4.824219 -4.960938 C 5.363281 -4.832031 5.785156 -4.574219 6.085938 -4.183594 C 6.386719 -3.789062 6.539062 -3.296875 6.539062 -2.707031 C 6.539062 -1.90625 6.246094 -1.226562 5.664062 -0.671875 C 5.078125 -0.113281 4.339844 0.164062 3.449219 0.164062 C 2.640625 0.164062 1.972656 -0.0742188 1.445312 -0.554688 C 0.910156 -1.03125 0.609375 -1.652344 0.539062 -2.417969 Z M 0.539062 -2.417969 "/>
</g>
<g id="glyph-0-24">
<path d="M 0.367188 -2.601562 L 1.460938 -2.75 C 1.488281 -2.046875 1.621094 -1.570312 1.855469 -1.3125 C 2.085938 -1.054688 2.410156 -0.925781 2.824219 -0.925781 C 3.128906 -0.925781 3.390625 -0.992188 3.613281 -1.132812 C 3.832031 -1.269531 3.984375 -1.460938 4.070312 -1.703125 C 4.152344 -1.941406 4.195312 -2.324219 4.195312 -2.851562 L 4.195312 -9.164062 L 5.40625 -9.164062 L 5.40625 -2.917969 C 5.402344 -2.152344 5.308594 -1.558594 5.128906 -1.136719 C 4.941406 -0.714844 4.648438 -0.394531 4.246094 -0.175781 C 3.84375 0.0429688 3.371094 0.152344 2.832031 0.15625 C 2.023438 0.152344 1.410156 -0.0742188 0.984375 -0.535156 C 0.554688 -0.996094 0.347656 -1.6875 0.367188 -2.601562 Z M 0.367188 -2.601562 "/>
</g>
<g id="glyph-0-25">
<path d="M 5.195312 0 L 5.195312 -0.976562 C 4.675781 -0.226562 3.972656 0.144531 3.085938 0.148438 C 2.691406 0.144531 2.324219 0.0742188 1.988281 -0.0742188 C 1.644531 -0.222656 1.394531 -0.410156 1.234375 -0.640625 C 1.066406 -0.863281 0.949219 -1.144531 0.886719 -1.476562 C 0.839844 -1.695312 0.820312 -2.042969 0.820312 -2.523438 L 0.820312 -6.636719 L 1.945312 -6.636719 L 1.945312 -2.957031 C 1.945312 -2.367188 1.964844 -1.972656 2.011719 -1.769531 C 2.078125 -1.472656 2.230469 -1.238281 2.460938 -1.070312 C 2.6875 -0.902344 2.96875 -0.820312 3.3125 -0.820312 C 3.648438 -0.820312 3.964844 -0.90625 4.261719 -1.078125 C 4.554688 -1.25 4.765625 -1.484375 4.890625 -1.78125 C 5.011719 -2.078125 5.074219 -2.511719 5.074219 -3.082031 L 5.074219 -6.636719 L 6.199219 -6.636719 L 6.199219 0 Z M 5.195312 0 "/>
</g>
<g id="glyph-0-26">
<path d="M 0.835938 -7.855469 L 0.835938 -9.164062 L 1.960938 -9.164062 L 1.960938 -7.855469 Z M -0.585938 2.574219 L -0.375 1.617188 C -0.148438 1.675781 0.0273438 1.703125 0.15625 1.707031 C 0.382812 1.703125 0.554688 1.628906 0.667969 1.476562 C 0.777344 1.324219 0.832031 0.941406 0.835938 0.335938 L 0.835938 -6.636719 L 1.960938 -6.636719 L 1.960938 0.363281 C 1.957031 1.175781 1.851562 1.742188 1.644531 2.070312 C 1.371094 2.484375 0.921875 2.695312 0.292969 2.695312 C -0.0117188 2.695312 -0.304688 2.652344 -0.585938 2.574219 Z M -0.585938 2.574219 "/>
</g>
<g id="glyph-0-27">
<path d="M 2.585938 0 L 0.15625 -9.164062 L 1.398438 -9.164062 L 2.792969 -3.15625 C 2.941406 -2.523438 3.070312 -1.898438 3.179688 -1.28125 C 3.410156 -2.257812 3.546875 -2.824219 3.59375 -2.976562 L 5.335938 -9.164062 L 6.800781 -9.164062 L 8.113281 -4.523438 C 8.4375 -3.375 8.675781 -2.292969 8.824219 -1.28125 C 8.941406 -1.855469 9.09375 -2.519531 9.28125 -3.273438 L 10.71875 -9.164062 L 11.9375 -9.164062 L 9.425781 0 L 8.257812 0 L 6.324219 -6.980469 C 6.160156 -7.558594 6.066406 -7.917969 6.039062 -8.054688 C 5.941406 -7.632812 5.851562 -7.273438 5.769531 -6.980469 L 3.824219 0 Z M 2.585938 0 "/>
</g>
<g id="glyph-1-0">
<path d="M 1.390625 0 L 1.390625 -7.203125 L 0.148438 -7.203125 L 0.148438 -8.296875 L 1.390625 -8.296875 L 1.390625 -9.179688 C 1.386719 -9.734375 1.4375 -10.148438 1.539062 -10.421875 C 1.671875 -10.785156 1.910156 -11.082031 2.253906 -11.308594 C 2.59375 -11.535156 3.070312 -11.648438 3.6875 -11.648438 C 4.078125 -11.648438 4.515625 -11.601562 5 -11.507812 L 4.789062 -10.28125 C 4.492188 -10.332031 4.21875 -10.359375 3.960938 -10.359375 C 3.53125 -10.359375 3.226562 -10.265625 3.054688 -10.085938 C 2.875 -9.898438 2.789062 -9.558594 2.789062 -9.0625 L 2.789062 -8.296875 L 4.40625 -8.296875 L 4.40625 -7.203125 L 2.789062 -7.203125 L 2.789062 0 Z M 1.390625 0 "/>
</g>
<g id="glyph-1-1">
<path d="M 6.46875 -3.039062 L 7.851562 -2.859375 C 7.699219 -1.90625 7.3125 -1.160156 6.691406 -0.621094 C 6.066406 -0.0820312 5.300781 0.1875 4.398438 0.1875 C 3.261719 0.1875 2.347656 -0.183594 1.660156 -0.925781 C 0.964844 -1.667969 0.621094 -2.730469 0.625 -4.117188 C 0.621094 -5.011719 0.769531 -5.796875 1.070312 -6.46875 C 1.363281 -7.140625 1.816406 -7.644531 2.425781 -7.980469 C 3.03125 -8.316406 3.691406 -8.484375 4.40625 -8.484375 C 5.304688 -8.484375 6.039062 -8.253906 6.617188 -7.800781 C 7.1875 -7.339844 7.554688 -6.695312 7.71875 -5.859375 L 6.351562 -5.648438 C 6.21875 -6.203125 5.988281 -6.621094 5.660156 -6.90625 C 5.328125 -7.183594 4.925781 -7.324219 4.460938 -7.328125 C 3.75 -7.324219 3.175781 -7.070312 2.734375 -6.566406 C 2.289062 -6.054688 2.066406 -5.25 2.070312 -4.15625 C 2.066406 -3.039062 2.28125 -2.230469 2.710938 -1.726562 C 3.136719 -1.21875 3.695312 -0.964844 4.382812 -0.96875 C 4.933594 -0.964844 5.394531 -1.136719 5.765625 -1.476562 C 6.132812 -1.8125 6.367188 -2.332031 6.46875 -3.039062 Z M 6.46875 -3.039062 "/>
</g>
<g id="glyph-1-2">
<path d="M 4.125 -1.257812 L 4.328125 -0.015625 C 3.929688 0.0664062 3.574219 0.105469 3.265625 0.109375 C 2.75 0.105469 2.355469 0.0273438 2.078125 -0.132812 C 1.792969 -0.292969 1.59375 -0.503906 1.484375 -0.769531 C 1.367188 -1.027344 1.3125 -1.582031 1.3125 -2.429688 L 1.3125 -7.203125 L 0.28125 -7.203125 L 0.28125 -8.296875 L 1.3125 -8.296875 L 1.3125 -10.351562 L 2.710938 -11.195312 L 2.710938 -8.296875 L 4.125 -8.296875 L 4.125 -7.203125 L 2.710938 -7.203125 L 2.710938 -2.351562 C 2.707031 -1.945312 2.730469 -1.6875 2.785156 -1.578125 C 2.832031 -1.460938 2.914062 -1.371094 3.027344 -1.304688 C 3.136719 -1.234375 3.296875 -1.199219 3.507812 -1.203125 C 3.660156 -1.199219 3.867188 -1.21875 4.125 -1.257812 Z M 4.125 -1.257812 "/>
</g>
<g id="glyph-1-3">
<path d="M -0.242188 3.179688 L -0.242188 2.164062 L 9.078125 2.164062 L 9.078125 3.179688 Z M -0.242188 3.179688 "/>
</g>
<g id="glyph-1-4">
<path d="M 1.039062 0 L 1.039062 -8.296875 L 2.304688 -8.296875 L 2.304688 -7.039062 C 2.625 -7.625 2.925781 -8.015625 3.199219 -8.203125 C 3.472656 -8.390625 3.773438 -8.484375 4.101562 -8.484375 C 4.574219 -8.484375 5.054688 -8.332031 5.546875 -8.03125 L 5.0625 -6.726562 C 4.71875 -6.929688 4.375 -7.03125 4.03125 -7.03125 C 3.722656 -7.03125 3.445312 -6.9375 3.203125 -6.753906 C 2.957031 -6.566406 2.78125 -6.308594 2.679688 -5.984375 C 2.519531 -5.480469 2.441406 -4.933594 2.445312 -4.34375 L 2.445312 0 Z M 1.039062 0 "/>
</g>
<g id="glyph-1-5">
<path d="M 6.734375 -2.671875 L 8.1875 -2.492188 C 7.953125 -1.640625 7.53125 -0.984375 6.914062 -0.515625 C 6.292969 -0.046875 5.5 0.1875 4.539062 0.1875 C 3.324219 0.1875 2.363281 -0.183594 1.652344 -0.933594 C 0.941406 -1.675781 0.585938 -2.726562 0.585938 -4.078125 C 0.585938 -5.472656 0.945312 -6.554688 1.664062 -7.328125 C 2.382812 -8.097656 3.3125 -8.484375 4.460938 -8.484375 C 5.566406 -8.484375 6.472656 -8.105469 7.179688 -7.351562 C 7.878906 -6.59375 8.230469 -5.53125 8.234375 -4.164062 C 8.230469 -4.078125 8.230469 -3.953125 8.226562 -3.789062 L 2.039062 -3.789062 C 2.089844 -2.875 2.347656 -2.175781 2.8125 -1.695312 C 3.273438 -1.207031 3.851562 -0.964844 4.546875 -0.96875 C 5.0625 -0.964844 5.5 -1.101562 5.867188 -1.375 C 6.226562 -1.644531 6.515625 -2.078125 6.734375 -2.671875 Z M 2.117188 -4.945312 L 6.75 -4.945312 C 6.6875 -5.640625 6.507812 -6.164062 6.21875 -6.515625 C 5.765625 -7.054688 5.1875 -7.324219 4.476562 -7.328125 C 3.828125 -7.324219 3.285156 -7.109375 2.847656 -6.679688 C 2.40625 -6.246094 2.160156 -5.667969 2.117188 -4.945312 Z M 2.117188 -4.945312 "/>
</g>
<g id="glyph-1-6">
<path d="M 0.53125 -4.148438 C 0.527344 -5.683594 0.953125 -6.820312 1.8125 -7.5625 C 2.523438 -8.175781 3.394531 -8.484375 4.421875 -8.484375 C 5.558594 -8.484375 6.492188 -8.109375 7.21875 -7.363281 C 7.941406 -6.613281 8.300781 -5.582031 8.304688 -4.265625 C 8.300781 -3.195312 8.140625 -2.355469 7.824219 -1.746094 C 7.5 -1.132812 7.035156 -0.65625 6.425781 -0.320312 C 5.8125 0.0195312 5.144531 0.1875 4.421875 0.1875 C 3.257812 0.1875 2.320312 -0.183594 1.605469 -0.929688 C 0.886719 -1.671875 0.527344 -2.746094 0.53125 -4.148438 Z M 1.976562 -4.148438 C 1.972656 -3.085938 2.207031 -2.289062 2.671875 -1.761719 C 3.132812 -1.230469 3.714844 -0.964844 4.421875 -0.96875 C 5.117188 -0.964844 5.699219 -1.230469 6.164062 -1.765625 C 6.625 -2.292969 6.855469 -3.105469 6.859375 -4.195312 C 6.855469 -5.21875 6.621094 -5.996094 6.160156 -6.527344 C 5.691406 -7.054688 5.113281 -7.316406 4.421875 -7.320312 C 3.714844 -7.316406 3.132812 -7.054688 2.671875 -6.53125 C 2.207031 -6.003906 1.972656 -5.210938 1.976562 -4.148438 Z M 1.976562 -4.148438 "/>
</g>
<g id="glyph-1-7">
<path d="M 6.4375 0 L 6.4375 -1.046875 C 5.910156 -0.222656 5.136719 0.1875 4.117188 0.1875 C 3.453125 0.1875 2.84375 0.0078125 2.292969 -0.359375 C 1.734375 -0.71875 1.304688 -1.230469 1.003906 -1.886719 C 0.695312 -2.539062 0.542969 -3.289062 0.546875 -4.140625 C 0.542969 -4.964844 0.683594 -5.714844 0.960938 -6.394531 C 1.234375 -7.066406 1.648438 -7.585938 2.203125 -7.945312 C 2.753906 -8.304688 3.371094 -8.484375 4.054688 -8.484375 C 4.554688 -8.484375 5 -8.378906 5.390625 -8.167969 C 5.78125 -7.957031 6.097656 -7.679688 6.34375 -7.34375 L 6.34375 -11.453125 L 7.742188 -11.453125 L 7.742188 0 Z M 1.992188 -4.140625 C 1.992188 -3.074219 2.214844 -2.28125 2.664062 -1.757812 C 3.109375 -1.230469 3.636719 -0.964844 4.25 -0.96875 C 4.859375 -0.964844 5.382812 -1.21875 5.816406 -1.722656 C 6.242188 -2.222656 6.457031 -2.988281 6.460938 -4.023438 C 6.457031 -5.15625 6.238281 -5.988281 5.804688 -6.523438 C 5.363281 -7.050781 4.824219 -7.316406 4.1875 -7.320312 C 3.558594 -7.316406 3.035156 -7.0625 2.621094 -6.554688 C 2.199219 -6.042969 1.992188 -5.238281 1.992188 -4.140625 Z M 1.992188 -4.140625 "/>
</g>
<g id="glyph-1-8">
<path d="M 3.742188 3.367188 C 2.964844 2.386719 2.308594 1.242188 1.773438 -0.0703125 C 1.234375 -1.382812 0.964844 -2.742188 0.96875 -4.148438 C 0.964844 -5.386719 1.167969 -6.574219 1.570312 -7.710938 C 2.039062 -9.027344 2.761719 -10.339844 3.742188 -11.648438 L 4.75 -11.648438 C 4.117188 -10.5625 3.699219 -9.789062 3.5 -9.328125 C 3.179688 -8.609375 2.929688 -7.859375 2.75 -7.078125 C 2.523438 -6.101562 2.414062 -5.121094 2.414062 -4.140625 C 2.414062 -1.632812 3.191406 0.867188 4.75 3.367188 Z M 3.742188 3.367188 "/>
</g>
<g id="glyph-1-9">
<path d="M 1.0625 -9.835938 L 1.0625 -11.453125 L 2.46875 -11.453125 L 2.46875 -9.835938 Z M 1.0625 0 L 1.0625 -8.296875 L 2.46875 -8.296875 L 2.46875 0 Z M 1.0625 0 "/>
</g>
<g id="glyph-1-10">
<path d="M 1.023438 0 L 1.023438 -11.453125 L 2.429688 -11.453125 L 2.429688 0 Z M 1.023438 0 "/>
</g>
<g id="glyph-1-11">
<path d="M 1.421875 0 L 1.421875 -1.601562 L 3.023438 -1.601562 L 3.023438 0 C 3.023438 0.585938 2.917969 1.058594 2.710938 1.425781 C 2.5 1.785156 2.167969 2.066406 1.71875 2.265625 L 1.328125 1.664062 C 1.621094 1.53125 1.839844 1.339844 1.984375 1.089844 C 2.121094 0.835938 2.199219 0.472656 2.21875 0 Z M 1.421875 0 "/>
</g>
<g id="glyph-1-12">
</g>
<g id="glyph-1-13">
<path d="M 6.46875 -1.023438 C 5.945312 -0.578125 5.441406 -0.265625 4.964844 -0.0859375 C 4.480469 0.0976562 3.964844 0.1875 3.414062 0.1875 C 2.5 0.1875 1.800781 -0.0351562 1.3125 -0.480469 C 0.820312 -0.925781 0.574219 -1.492188 0.578125 -2.1875 C 0.574219 -2.589844 0.667969 -2.960938 0.855469 -3.300781 C 1.039062 -3.632812 1.28125 -3.902344 1.582031 -4.109375 C 1.878906 -4.308594 2.214844 -4.464844 2.59375 -4.570312 C 2.867188 -4.640625 3.285156 -4.710938 3.84375 -4.78125 C 4.976562 -4.914062 5.8125 -5.074219 6.351562 -5.265625 C 6.355469 -5.457031 6.355469 -5.578125 6.359375 -5.632812 C 6.355469 -6.203125 6.222656 -6.609375 5.960938 -6.84375 C 5.597656 -7.160156 5.066406 -7.316406 4.359375 -7.320312 C 3.695312 -7.316406 3.207031 -7.203125 2.894531 -6.972656 C 2.578125 -6.738281 2.34375 -6.328125 2.195312 -5.742188 L 0.820312 -5.929688 C 0.945312 -6.515625 1.148438 -6.988281 1.4375 -7.355469 C 1.71875 -7.714844 2.132812 -7.996094 2.679688 -8.191406 C 3.21875 -8.386719 3.847656 -8.484375 4.5625 -8.484375 C 5.269531 -8.484375 5.84375 -8.398438 6.289062 -8.234375 C 6.726562 -8.0625 7.054688 -7.855469 7.265625 -7.605469 C 7.472656 -7.351562 7.617188 -7.03125 7.703125 -6.648438 C 7.746094 -6.40625 7.769531 -5.972656 7.773438 -5.351562 L 7.773438 -3.476562 C 7.769531 -2.164062 7.800781 -1.339844 7.863281 -0.996094 C 7.921875 -0.648438 8.039062 -0.316406 8.21875 0 L 6.75 0 C 6.601562 -0.289062 6.507812 -0.628906 6.46875 -1.023438 Z M 6.351562 -4.164062 C 5.839844 -3.953125 5.074219 -3.777344 4.054688 -3.632812 C 3.476562 -3.546875 3.066406 -3.453125 2.828125 -3.351562 C 2.585938 -3.246094 2.402344 -3.09375 2.273438 -2.894531 C 2.140625 -2.691406 2.074219 -2.46875 2.078125 -2.226562 C 2.074219 -1.851562 2.214844 -1.539062 2.503906 -1.289062 C 2.785156 -1.039062 3.203125 -0.914062 3.75 -0.914062 C 4.289062 -0.914062 4.769531 -1.03125 5.195312 -1.269531 C 5.613281 -1.503906 5.921875 -1.828125 6.125 -2.242188 C 6.273438 -2.558594 6.351562 -3.027344 6.351562 -3.648438 Z M 6.351562 -4.164062 "/>
</g>
<g id="glyph-1-14">
<path d="M 1.054688 0 L 1.054688 -8.296875 L 2.3125 -8.296875 L 2.3125 -7.132812 C 2.570312 -7.535156 2.917969 -7.863281 3.351562 -8.113281 C 3.78125 -8.359375 4.273438 -8.484375 4.828125 -8.484375 C 5.441406 -8.484375 5.945312 -8.355469 6.339844 -8.101562 C 6.730469 -7.84375 7.007812 -7.488281 7.171875 -7.03125 C 7.828125 -8 8.679688 -8.484375 9.734375 -8.484375 C 10.554688 -8.484375 11.1875 -8.253906 11.632812 -7.800781 C 12.070312 -7.339844 12.292969 -6.640625 12.296875 -5.695312 L 12.296875 0 L 10.898438 0 L 10.898438 -5.226562 C 10.898438 -5.789062 10.851562 -6.191406 10.761719 -6.441406 C 10.667969 -6.683594 10.503906 -6.882812 10.265625 -7.039062 C 10.023438 -7.1875 9.742188 -7.265625 9.421875 -7.265625 C 8.835938 -7.265625 8.351562 -7.070312 7.96875 -6.683594 C 7.582031 -6.292969 7.386719 -5.671875 7.390625 -4.820312 L 7.390625 0 L 5.984375 0 L 5.984375 -5.390625 C 5.980469 -6.015625 5.867188 -6.484375 5.640625 -6.796875 C 5.410156 -7.109375 5.035156 -7.265625 4.515625 -7.265625 C 4.117188 -7.265625 3.75 -7.160156 3.417969 -6.953125 C 3.078125 -6.742188 2.835938 -6.4375 2.6875 -6.039062 C 2.535156 -5.636719 2.460938 -5.058594 2.460938 -4.304688 L 2.460938 0 Z M 1.054688 0 "/>
</g>
<g id="glyph-1-15">
<path d="M 6.492188 0 L 6.492188 -1.21875 C 5.84375 -0.28125 4.964844 0.1875 3.859375 0.1875 C 3.367188 0.1875 2.910156 0.09375 2.488281 -0.09375 C 2.0625 -0.28125 1.746094 -0.515625 1.542969 -0.800781 C 1.332031 -1.082031 1.1875 -1.429688 1.109375 -1.84375 C 1.046875 -2.117188 1.019531 -2.554688 1.023438 -3.15625 L 1.023438 -8.296875 L 2.429688 -8.296875 L 2.429688 -3.695312 C 2.425781 -2.957031 2.453125 -2.460938 2.515625 -2.210938 C 2.601562 -1.835938 2.789062 -1.546875 3.078125 -1.339844 C 3.359375 -1.125 3.714844 -1.019531 4.140625 -1.023438 C 4.558594 -1.019531 4.953125 -1.128906 5.328125 -1.347656 C 5.695312 -1.5625 5.957031 -1.855469 6.113281 -2.230469 C 6.261719 -2.601562 6.339844 -3.140625 6.34375 -3.851562 L 6.34375 -8.296875 L 7.75 -8.296875 L 7.75 0 Z M 6.492188 0 "/>
</g>
<g id="glyph-1-16">
<path d="M 1.054688 0 L 1.054688 -8.296875 L 2.320312 -8.296875 L 2.320312 -7.117188 C 2.929688 -8.027344 3.808594 -8.484375 4.960938 -8.484375 C 5.457031 -8.484375 5.917969 -8.394531 6.339844 -8.214844 C 6.757812 -8.035156 7.070312 -7.796875 7.28125 -7.507812 C 7.488281 -7.210938 7.632812 -6.867188 7.71875 -6.46875 C 7.765625 -6.207031 7.792969 -5.75 7.796875 -5.101562 L 7.796875 0 L 6.390625 0 L 6.390625 -5.046875 C 6.386719 -5.617188 6.332031 -6.046875 6.226562 -6.332031 C 6.113281 -6.613281 5.917969 -6.839844 5.644531 -7.011719 C 5.363281 -7.179688 5.039062 -7.265625 4.664062 -7.265625 C 4.0625 -7.265625 3.542969 -7.074219 3.113281 -6.695312 C 2.675781 -6.3125 2.460938 -5.589844 2.460938 -4.53125 L 2.460938 0 Z M 1.054688 0 "/>
</g>
<g id="glyph-1-17">
<path d="M 1.976562 3.367188 L 0.96875 3.367188 C 2.523438 0.867188 3.304688 -1.632812 3.304688 -4.140625 C 3.304688 -5.117188 3.191406 -6.089844 2.96875 -7.054688 C 2.789062 -7.835938 2.542969 -8.585938 2.226562 -9.304688 C 2.023438 -9.773438 1.601562 -10.554688 0.96875 -11.648438 L 1.976562 -11.648438 C 2.953125 -10.339844 3.679688 -9.027344 4.148438 -7.710938 C 4.546875 -6.574219 4.746094 -5.386719 4.75 -4.148438 C 4.746094 -2.742188 4.476562 -1.382812 3.941406 -0.0703125 C 3.398438 1.242188 2.742188 2.386719 1.976562 3.367188 Z M 1.976562 3.367188 "/>
</g>
<g id="glyph-2-0">
<path d="M -1.023438 -6.46875 C -0.578125 -5.945312 -0.265625 -5.441406 -0.0859375 -4.964844 C 0.0976562 -4.480469 0.1875 -3.964844 0.1875 -3.414062 C 0.1875 -2.5 -0.0351562 -1.800781 -0.480469 -1.3125 C -0.925781 -0.820312 -1.492188 -0.574219 -2.1875 -0.578125 C -2.589844 -0.574219 -2.960938 -0.667969 -3.300781 -0.855469 C -3.632812 -1.039062 -3.902344 -1.28125 -4.109375 -1.582031 C -4.308594 -1.878906 -4.464844 -2.214844 -4.570312 -2.59375 C -4.640625 -2.867188 -4.710938 -3.285156 -4.78125 -3.84375 C -4.914062 -4.976562 -5.074219 -5.8125 -5.265625 -6.351562 C -5.457031 -6.355469 -5.578125 -6.355469 -5.632812 -6.359375 C -6.203125 -6.355469 -6.609375 -6.222656 -6.84375 -5.960938 C -7.160156 -5.597656 -7.316406 -5.066406 -7.320312 -4.359375 C -7.316406 -3.695312 -7.203125 -3.207031 -6.972656 -2.894531 C -6.738281 -2.578125 -6.328125 -2.34375 -5.742188 -2.195312 L -5.929688 -0.820312 C -6.515625 -0.945312 -6.988281 -1.148438 -7.355469 -1.4375 C -7.714844 -1.71875 -7.996094 -2.132812 -8.191406 -2.679688 C -8.386719 -3.21875 -8.484375 -3.847656 -8.484375 -4.5625 C -8.484375 -5.269531 -8.398438 -5.84375 -8.234375 -6.289062 C -8.0625 -6.726562 -7.855469 -7.054688 -7.605469 -7.265625 C -7.351562 -7.472656 -7.03125 -7.617188 -6.648438 -7.703125 C -6.40625 -7.746094 -5.972656 -7.769531 -5.351562 -7.773438 L -3.476562 -7.773438 C -2.164062 -7.769531 -1.339844 -7.800781 -0.996094 -7.863281 C -0.648438 -7.921875 -0.316406 -8.039062 0 -8.21875 L 0 -6.75 C -0.289062 -6.601562 -0.628906 -6.507812 -1.023438 -6.46875 Z M -4.164062 -6.351562 C -3.953125 -5.839844 -3.777344 -5.074219 -3.632812 -4.054688 C -3.546875 -3.476562 -3.453125 -3.066406 -3.351562 -2.828125 C -3.246094 -2.585938 -3.09375 -2.402344 -2.894531 -2.273438 C -2.691406 -2.140625 -2.46875 -2.074219 -2.226562 -2.078125 C -1.851562 -2.074219 -1.539062 -2.214844 -1.289062 -2.503906 C -1.039062 -2.785156 -0.914062 -3.203125 -0.914062 -3.75 C -0.914062 -4.289062 -1.03125 -4.769531 -1.269531 -5.195312 C -1.503906 -5.613281 -1.828125 -5.921875 -2.242188 -6.125 C -2.558594 -6.273438 -3.027344 -6.351562 -3.648438 -6.351562 Z M -4.164062 -6.351562 "/>
</g>
<g id="glyph-2-1">
<path d="M 0 -1.054688 L -8.296875 -1.054688 L -8.296875 -2.3125 L -7.132812 -2.3125 C -7.535156 -2.570312 -7.863281 -2.917969 -8.113281 -3.351562 C -8.359375 -3.78125 -8.484375 -4.273438 -8.484375 -4.828125 C -8.484375 -5.441406 -8.355469 -5.945312 -8.101562 -6.339844 C -7.84375 -6.730469 -7.488281 -7.007812 -7.03125 -7.171875 C -8 -7.828125 -8.484375 -8.679688 -8.484375 -9.734375 C -8.484375 -10.554688 -8.253906 -11.1875 -7.800781 -11.632812 C -7.339844 -12.070312 -6.640625 -12.292969 -5.695312 -12.296875 L 0 -12.296875 L 0 -10.898438 L -5.226562 -10.898438 C -5.789062 -10.898438 -6.191406 -10.851562 -6.441406 -10.761719 C -6.683594 -10.667969 -6.882812 -10.503906 -7.039062 -10.265625 C -7.1875 -10.023438 -7.265625 -9.742188 -7.265625 -9.421875 C -7.265625 -8.835938 -7.070312 -8.351562 -6.683594 -7.96875 C -6.292969 -7.582031 -5.671875 -7.386719 -4.820312 -7.390625 L 0 -7.390625 L 0 -5.984375 L -5.390625 -5.984375 C -6.015625 -5.980469 -6.484375 -5.867188 -6.796875 -5.640625 C -7.109375 -5.410156 -7.265625 -5.035156 -7.265625 -4.515625 C -7.265625 -4.117188 -7.160156 -3.75 -6.953125 -3.417969 C -6.742188 -3.078125 -6.4375 -2.835938 -6.039062 -2.6875 C -5.636719 -2.535156 -5.058594 -2.460938 -4.304688 -2.460938 L 0 -2.460938 Z M 0 -1.054688 "/>
</g>
<g id="glyph-2-2">
<path d="M -4.148438 -0.53125 C -5.683594 -0.527344 -6.820312 -0.953125 -7.5625 -1.8125 C -8.175781 -2.523438 -8.484375 -3.394531 -8.484375 -4.421875 C -8.484375 -5.558594 -8.109375 -6.492188 -7.363281 -7.21875 C -6.613281 -7.941406 -5.582031 -8.300781 -4.265625 -8.304688 C -3.195312 -8.300781 -2.355469 -8.140625 -1.746094 -7.824219 C -1.132812 -7.5 -0.65625 -7.035156 -0.320312 -6.425781 C 0.0195312 -5.8125 0.1875 -5.144531 0.1875 -4.421875 C 0.1875 -3.257812 -0.183594 -2.320312 -0.929688 -1.605469 C -1.671875 -0.886719 -2.746094 -0.527344 -4.148438 -0.53125 Z M -4.148438 -1.976562 C -3.085938 -1.972656 -2.289062 -2.207031 -1.761719 -2.671875 C -1.230469 -3.132812 -0.964844 -3.714844 -0.96875 -4.421875 C -0.964844 -5.117188 -1.230469 -5.699219 -1.765625 -6.164062 C -2.292969 -6.625 -3.105469 -6.855469 -4.195312 -6.859375 C -5.21875 -6.855469 -5.996094 -6.621094 -6.527344 -6.160156 C -7.054688 -5.691406 -7.316406 -5.113281 -7.320312 -4.421875 C -7.316406 -3.714844 -7.054688 -3.132812 -6.53125 -2.671875 C -6.003906 -2.207031 -5.210938 -1.972656 -4.148438 -1.976562 Z M -4.148438 -1.976562 "/>
</g>
<g id="glyph-2-3">
<path d="M 0 -6.492188 L -1.21875 -6.492188 C -0.28125 -5.84375 0.1875 -4.964844 0.1875 -3.859375 C 0.1875 -3.367188 0.09375 -2.910156 -0.09375 -2.488281 C -0.28125 -2.0625 -0.515625 -1.746094 -0.800781 -1.542969 C -1.082031 -1.332031 -1.429688 -1.1875 -1.84375 -1.109375 C -2.117188 -1.046875 -2.554688 -1.019531 -3.15625 -1.023438 L -8.296875 -1.023438 L -8.296875 -2.429688 L -3.695312 -2.429688 C -2.957031 -2.425781 -2.460938 -2.453125 -2.210938 -2.515625 C -1.835938 -2.601562 -1.546875 -2.789062 -1.339844 -3.078125 C -1.125 -3.359375 -1.019531 -3.714844 -1.023438 -4.140625 C -1.019531 -4.558594 -1.128906 -4.953125 -1.347656 -5.328125 C -1.5625 -5.695312 -1.855469 -5.957031 -2.230469 -6.113281 C -2.601562 -6.261719 -3.140625 -6.339844 -3.851562 -6.34375 L -8.296875 -6.34375 L -8.296875 -7.75 L 0 -7.75 Z M 0 -6.492188 "/>
</g>
<g id="glyph-2-4">
<path d="M 0 -1.054688 L -8.296875 -1.054688 L -8.296875 -2.320312 L -7.117188 -2.320312 C -8.027344 -2.929688 -8.484375 -3.808594 -8.484375 -4.960938 C -8.484375 -5.457031 -8.394531 -5.917969 -8.214844 -6.339844 C -8.035156 -6.757812 -7.796875 -7.070312 -7.507812 -7.28125 C -7.210938 -7.488281 -6.867188 -7.632812 -6.46875 -7.71875 C -6.207031 -7.765625 -5.75 -7.792969 -5.101562 -7.796875 L 0 -7.796875 L 0 -6.390625 L -5.046875 -6.390625 C -5.617188 -6.386719 -6.046875 -6.332031 -6.332031 -6.226562 C -6.613281 -6.113281 -6.839844 -5.917969 -7.011719 -5.644531 C -7.179688 -5.363281 -7.265625 -5.039062 -7.265625 -4.664062 C -7.265625 -4.0625 -7.074219 -3.542969 -6.695312 -3.113281 C -6.3125 -2.675781 -5.589844 -2.460938 -4.53125 -2.460938 L 0 -2.460938 Z M 0 -1.054688 "/>
</g>
<g id="glyph-2-5">
<path d="M -1.257812 -4.125 L -0.015625 -4.328125 C 0.0664062 -3.929688 0.105469 -3.574219 0.109375 -3.265625 C 0.105469 -2.75 0.0273438 -2.355469 -0.132812 -2.078125 C -0.292969 -1.792969 -0.503906 -1.59375 -0.769531 -1.484375 C -1.027344 -1.367188 -1.582031 -1.3125 -2.429688 -1.3125 L -7.203125 -1.3125 L -7.203125 -0.28125 L -8.296875 -0.28125 L -8.296875 -1.3125 L -10.351562 -1.3125 L -11.195312 -2.710938 L -8.296875 -2.710938 L -8.296875 -4.125 L -7.203125 -4.125 L -7.203125 -2.710938 L -2.351562 -2.710938 C -1.945312 -2.707031 -1.6875 -2.730469 -1.578125 -2.785156 C -1.460938 -2.832031 -1.371094 -2.914062 -1.304688 -3.027344 C -1.234375 -3.136719 -1.199219 -3.296875 -1.203125 -3.507812 C -1.199219 -3.660156 -1.21875 -3.867188 -1.257812 -4.125 Z M -1.257812 -4.125 "/>
</g>
</g>
<clipPath id="clip-0">
<path clip-rule="nonzero" d="M 48.1875 7.96875 L 568.03125 7.96875 L 568.03125 184.195312 L 48.1875 184.195312 Z M 48.1875 7.96875 "/>
</clipPath>
<clipPath id="clip-1">
<path clip-rule="nonzero" d="M 48.1875 153 L 568.03125 153 L 568.03125 155 L 48.1875 155 Z M 48.1875 153 "/>
</clipPath>
<clipPath id="clip-2">
<path clip-rule="nonzero" d="M 48.1875 108 L 568.03125 108 L 568.03125 110 L 48.1875 110 Z M 48.1875 108 "/>
</clipPath>
<clipPath id="clip-3">
<path clip-rule="nonzero" d="M 48.1875 63 L 568.03125 63 L 568.03125 65 L 48.1875 65 Z M 48.1875 63 "/>
</clipPath>
<clipPath id="clip-4">
<path clip-rule="nonzero" d="M 48.1875 19 L 568.03125 19 L 568.03125 20 L 48.1875 20 Z M 48.1875 19 "/>
</clipPath>
<clipPath id="clip-5">
<path clip-rule="nonzero" d="M 48.1875 175 L 568.03125 175 L 568.03125 177 L 48.1875 177 Z M 48.1875 175 "/>
</clipPath>
<clipPath id="clip-6">
<path clip-rule="nonzero" d="M 48.1875 130 L 568.03125 130 L 568.03125 133 L 48.1875 133 Z M 48.1875 130 "/>
</clipPath>
<clipPath id="clip-7">
<path clip-rule="nonzero" d="M 48.1875 85 L 568.03125 85 L 568.03125 88 L 48.1875 88 Z M 48.1875 85 "/>
</clipPath>
<clipPath id="clip-8">
<path clip-rule="nonzero" d="M 48.1875 41 L 568.03125 41 L 568.03125 43 L 48.1875 43 Z M 48.1875 41 "/>
</clipPath>
<clipPath id="clip-9">
<path clip-rule="nonzero" d="M 107 7.96875 L 109 7.96875 L 109 184.195312 L 107 184.195312 Z M 107 7.96875 "/>
</clipPath>
<clipPath id="clip-10">
<path clip-rule="nonzero" d="M 207 7.96875 L 209 7.96875 L 209 184.195312 L 207 184.195312 Z M 207 7.96875 "/>
</clipPath>
<clipPath id="clip-11">
<path clip-rule="nonzero" d="M 307 7.96875 L 309 7.96875 L 309 184.195312 L 307 184.195312 Z M 307 7.96875 "/>
</clipPath>
<clipPath id="clip-12">
<path clip-rule="nonzero" d="M 407 7.96875 L 409 7.96875 L 409 184.195312 L 407 184.195312 Z M 407 7.96875 "/>
</clipPath>
<clipPath id="clip-13">
<path clip-rule="nonzero" d="M 507 7.96875 L 509 7.96875 L 509 184.195312 L 507 184.195312 Z M 507 7.96875 "/>
</clipPath>
</defs>
<rect x="-57.6" y="-23" width="691.2" height="276" fill="rgb(100%, 100%, 100%)" fill-opacity="1"/>
<rect x="-57.6" y="-23" width="691.2" height="276" fill="rgb(100%, 100%, 100%)" fill-opacity="1"/>
<path fill="none" stroke-width="1.551969" stroke-linecap="round" stroke-linejoin="round" stroke="rgb(100%, 100%, 100%)" stroke-opacity="1" stroke-miterlimit="10" d="M 0 230 L 576 230 L 576 0 L 0 0 Z M 0 230 "/>
<g clip-path="url(#clip-0)">
<path fill-rule="nonzero" fill="rgb(92.156863%, 92.156863%, 92.156863%)" fill-opacity="1" d="M 48.1875 184.195312 L 568.03125 184.195312 L 568.03125 7.96875 L 48.1875 7.96875 Z M 48.1875 184.195312 "/>
</g>
<g clip-path="url(#clip-1)">
<path fill="none" stroke-width="0.775984" stroke-linecap="butt" stroke-linejoin="round" stroke="rgb(100%, 100%, 100%)" stroke-opacity="1" stroke-miterlimit="10" d="M 48.1875 153.800781 L 568.03125 153.800781 "/>
</g>
<g clip-path="url(#clip-2)">
<path fill="none" stroke-width="0.775984" stroke-linecap="butt" stroke-linejoin="round" stroke="rgb(100%, 100%, 100%)" stroke-opacity="1" stroke-miterlimit="10" d="M 48.1875 109.03125 L 568.03125 109.03125 "/>
</g>
<g clip-path="url(#clip-3)">
<path fill="none" stroke-width="0.775984" stroke-linecap="butt" stroke-linejoin="round" stroke="rgb(100%, 100%, 100%)" stroke-opacity="1" stroke-miterlimit="10" d="M 48.1875 64.261719 L 568.03125 64.261719 "/>
</g>
<g clip-path="url(#clip-4)">
<path fill="none" stroke-width="0.775984" stroke-linecap="butt" stroke-linejoin="round" stroke="rgb(100%, 100%, 100%)" stroke-opacity="1" stroke-miterlimit="10" d="M 48.1875 19.496094 L 568.03125 19.496094 "/>
</g>
<g clip-path="url(#clip-5)">
<path fill="none" stroke-width="1.551969" stroke-linecap="butt" stroke-linejoin="round" stroke="rgb(100%, 100%, 100%)" stroke-opacity="1" stroke-miterlimit="10" d="M 48.1875 176.183594 L 568.03125 176.183594 "/>
</g>
<g clip-path="url(#clip-6)">
<path fill="none" stroke-width="1.551969" stroke-linecap="butt" stroke-linejoin="round" stroke="rgb(100%, 100%, 100%)" stroke-opacity="1" stroke-miterlimit="10" d="M 48.1875 131.417969 L 568.03125 131.417969 "/>
</g>
<g clip-path="url(#clip-7)">
<path fill="none" stroke-width="1.551969" stroke-linecap="butt" stroke-linejoin="round" stroke="rgb(100%, 100%, 100%)" stroke-opacity="1" stroke-miterlimit="10" d="M 48.1875 86.648438 L 568.03125 86.648438 "/>
</g>
<g clip-path="url(#clip-8)">
<path fill="none" stroke-width="1.551969" stroke-linecap="butt" stroke-linejoin="round" stroke="rgb(100%, 100%, 100%)" stroke-opacity="1" stroke-miterlimit="10" d="M 48.1875 41.878906 L 568.03125 41.878906 "/>
</g>
<g clip-path="url(#clip-9)">
<path fill="none" stroke-width="1.551969" stroke-linecap="butt" stroke-linejoin="round" stroke="rgb(100%, 100%, 100%)" stroke-opacity="1" stroke-miterlimit="10" d="M 108.167969 184.195312 L 108.167969 7.96875 "/>
</g>
<g clip-path="url(#clip-10)">
<path fill="none" stroke-width="1.551969" stroke-linecap="butt" stroke-linejoin="round" stroke="rgb(100%, 100%, 100%)" stroke-opacity="1" stroke-miterlimit="10" d="M 208.136719 184.195312 L 208.136719 7.96875 "/>
</g>
<g clip-path="url(#clip-11)">
<path fill="none" stroke-width="1.551969" stroke-linecap="butt" stroke-linejoin="round" stroke="rgb(100%, 100%, 100%)" stroke-opacity="1" stroke-miterlimit="10" d="M 308.109375 184.195312 L 308.109375 7.96875 "/>
</g>
<g clip-path="url(#clip-12)">
<path fill="none" stroke-width="1.551969" stroke-linecap="butt" stroke-linejoin="round" stroke="rgb(100%, 100%, 100%)" stroke-opacity="1" stroke-miterlimit="10" d="M 408.078125 184.195312 L 408.078125 7.96875 "/>
</g>
<g clip-path="url(#clip-13)">
<path fill="none" stroke-width="1.551969" stroke-linecap="butt" stroke-linejoin="round" stroke="rgb(100%, 100%, 100%)" stroke-opacity="1" stroke-miterlimit="10" d="M 508.046875 184.195312 L 508.046875 7.96875 "/>
</g>
<path fill-rule="nonzero" fill="rgb(34.901961%, 34.901961%, 34.901961%)" fill-opacity="1" d="M 463.0625 176.183594 L 553.035156 176.183594 L 553.035156 15.980469 L 463.0625 15.980469 Z M 463.0625 176.183594 "/>
<path fill-rule="nonzero" fill="rgb(34.901961%, 34.901961%, 34.901961%)" fill-opacity="1" d="M 363.089844 176.183594 L 453.0625 176.183594 L 453.0625 95.21875 L 363.089844 95.21875 Z M 363.089844 176.183594 "/>
<path fill-rule="nonzero" fill="rgb(34.901961%, 34.901961%, 34.901961%)" fill-opacity="1" d="M 263.121094 176.183594 L 353.09375 176.183594 L 353.09375 131.570312 L 263.121094 131.570312 Z M 263.121094 176.183594 "/>
<path fill-rule="nonzero" fill="rgb(34.901961%, 34.901961%, 34.901961%)" fill-opacity="1" d="M 163.152344 176.183594 L 253.125 176.183594 L 253.125 156.464844 L 163.152344 156.464844 Z M 163.152344 176.183594 "/>
<path fill-rule="nonzero" fill="rgb(34.901961%, 34.901961%, 34.901961%)" fill-opacity="1" d="M 63.179688 176.183594 L 153.152344 176.183594 L 153.152344 159.796875 L 63.179688 159.796875 Z M 63.179688 176.183594 "/>
<g fill="rgb(30.196078%, 30.196078%, 30.196078%)" fill-opacity="1">
<use xlink:href="#glyph-0-0" x="33.894531" y="180.765625"/>
</g>
<g fill="rgb(30.196078%, 30.196078%, 30.196078%)" fill-opacity="1">
<use xlink:href="#glyph-0-1" x="26.773438" y="135.996094"/>
<use xlink:href="#glyph-0-0" x="33.892187" y="135.996094"/>
</g>
<g fill="rgb(30.196078%, 30.196078%, 30.196078%)" fill-opacity="1">
<use xlink:href="#glyph-0-2" x="26.773438" y="91.230469"/>
<use xlink:href="#glyph-0-0" x="33.892187" y="91.230469"/>
</g>
<g fill="rgb(30.196078%, 30.196078%, 30.196078%)" fill-opacity="1">
<use xlink:href="#glyph-0-3" x="26.773438" y="46.460938"/>
<use xlink:href="#glyph-0-0" x="33.892187" y="46.460938"/>
</g>
<path fill="none" stroke-width="1.551969" stroke-linecap="butt" stroke-linejoin="round" stroke="rgb(20%, 20%, 20%)" stroke-opacity="1" stroke-miterlimit="10" d="M 44.199219 176.183594 L 48.1875 176.183594 "/>
<path fill="none" stroke-width="1.551969" stroke-linecap="butt" stroke-linejoin="round" stroke="rgb(20%, 20%, 20%)" stroke-opacity="1" stroke-miterlimit="10" d="M 44.199219 131.417969 L 48.1875 131.417969 "/>
<path fill="none" stroke-width="1.551969" stroke-linecap="butt" stroke-linejoin="round" stroke="rgb(20%, 20%, 20%)" stroke-opacity="1" stroke-miterlimit="10" d="M 44.199219 86.648438 L 48.1875 86.648438 "/>
<path fill="none" stroke-width="1.551969" stroke-linecap="butt" stroke-linejoin="round" stroke="rgb(20%, 20%, 20%)" stroke-opacity="1" stroke-miterlimit="10" d="M 44.199219 41.878906 L 48.1875 41.878906 "/>
<path fill="none" stroke-width="1.551969" stroke-linecap="butt" stroke-linejoin="round" stroke="rgb(20%, 20%, 20%)" stroke-opacity="1" stroke-miterlimit="10" d="M 108.167969 188.179688 L 108.167969 184.195312 "/>
<path fill="none" stroke-width="1.551969" stroke-linecap="butt" stroke-linejoin="round" stroke="rgb(20%, 20%, 20%)" stroke-opacity="1" stroke-miterlimit="10" d="M 208.136719 188.179688 L 208.136719 184.195312 "/>
<path fill="none" stroke-width="1.551969" stroke-linecap="butt" stroke-linejoin="round" stroke="rgb(20%, 20%, 20%)" stroke-opacity="1" stroke-miterlimit="10" d="M 308.109375 188.179688 L 308.109375 184.195312 "/>
<path fill="none" stroke-width="1.551969" stroke-linecap="butt" stroke-linejoin="round" stroke="rgb(20%, 20%, 20%)" stroke-opacity="1" stroke-miterlimit="10" d="M 408.078125 188.179688 L 408.078125 184.195312 "/>
<path fill="none" stroke-width="1.551969" stroke-linecap="butt" stroke-linejoin="round" stroke="rgb(20%, 20%, 20%)" stroke-opacity="1" stroke-miterlimit="10" d="M 508.046875 188.179688 L 508.046875 184.195312 "/>
<g fill="rgb(30.196078%, 30.196078%, 30.196078%)" fill-opacity="1">
<use xlink:href="#glyph-0-4" x="79.347656" y="200.53125"/>
<use xlink:href="#glyph-0-5" x="87.166406" y="200.53125"/>
<use xlink:href="#glyph-0-6" x="94.285156" y="200.53125"/>
<use xlink:href="#glyph-0-7" x="98.547656" y="200.53125"/>
<use xlink:href="#glyph-0-8" x="105.666406" y="200.53125"/>
<use xlink:href="#glyph-0-9" x="108.510156" y="200.53125"/>
<use xlink:href="#glyph-0-10" x="115.628906" y="200.53125"/>
<use xlink:href="#glyph-0-9" x="122.747656" y="200.53125"/>
<use xlink:href="#glyph-0-7" x="129.866406" y="200.53125"/>
</g>
<g fill="rgb(30.196078%, 30.196078%, 30.196078%)" fill-opacity="1">
<use xlink:href="#glyph-0-11" x="153.355469" y="200.53125"/>
<use xlink:href="#glyph-0-6" x="163.311719" y="200.53125"/>
<use xlink:href="#glyph-0-5" x="167.574219" y="200.53125"/>
<use xlink:href="#glyph-0-10" x="174.692969" y="200.53125"/>
<use xlink:href="#glyph-0-12" x="181.811719" y="200.53125"/>
<use xlink:href="#glyph-0-5" x="185.367969" y="200.53125"/>
<use xlink:href="#glyph-0-13" x="192.486719" y="200.53125"/>
<use xlink:href="#glyph-0-12" x="198.886719" y="200.53125"/>
<use xlink:href="#glyph-0-14" x="202.442969" y="200.53125"/>
<use xlink:href="#glyph-0-15" x="205.999219" y="200.53125"/>
<use xlink:href="#glyph-0-16" x="214.536719" y="200.53125"/>
<use xlink:href="#glyph-0-17" x="221.655469" y="200.53125"/>
<use xlink:href="#glyph-0-18" x="228.774219" y="200.53125"/>
<use xlink:href="#glyph-0-19" x="238.017969" y="200.53125"/>
<use xlink:href="#glyph-0-10" x="248.680469" y="200.53125"/>
<use xlink:href="#glyph-0-9" x="255.799219" y="200.53125"/>
</g>
<g fill="rgb(30.196078%, 30.196078%, 30.196078%)" fill-opacity="1">
<use xlink:href="#glyph-0-20" x="266.492188" y="200.53125"/>
<use xlink:href="#glyph-0-8" x="275.029688" y="200.53125"/>
<use xlink:href="#glyph-0-12" x="277.873438" y="200.53125"/>
<use xlink:href="#glyph-0-21" x="281.429688" y="200.53125"/>
<use xlink:href="#glyph-0-16" x="287.829687" y="200.53125"/>
<use xlink:href="#glyph-0-14" x="294.948437" y="200.53125"/>
<use xlink:href="#glyph-0-20" x="298.504687" y="200.53125"/>
<use xlink:href="#glyph-0-5" x="307.042187" y="200.53125"/>
<use xlink:href="#glyph-0-6" x="314.160937" y="200.53125"/>
<use xlink:href="#glyph-0-22" x="318.423437" y="200.53125"/>
<use xlink:href="#glyph-0-5" x="321.979687" y="200.53125"/>
<use xlink:href="#glyph-0-21" x="329.098437" y="200.53125"/>
<use xlink:href="#glyph-0-12" x="335.498437" y="200.53125"/>
<use xlink:href="#glyph-0-14" x="339.054687" y="200.53125"/>
<use xlink:href="#glyph-0-23" x="342.610937" y="200.53125"/>
</g>
<g fill="rgb(30.196078%, 30.196078%, 30.196078%)" fill-opacity="1">
<use xlink:href="#glyph-0-24" x="386.023438" y="200.53125"/>
<use xlink:href="#glyph-0-25" x="392.423437" y="200.53125"/>
<use xlink:href="#glyph-0-19" x="399.542187" y="200.53125"/>
<use xlink:href="#glyph-0-10" x="410.204687" y="200.53125"/>
<use xlink:href="#glyph-0-9" x="417.323437" y="200.53125"/>
<use xlink:href="#glyph-0-26" x="424.442187" y="200.53125"/>
<use xlink:href="#glyph-0-8" x="427.285937" y="200.53125"/>
</g>
<g fill="rgb(30.196078%, 30.196078%, 30.196078%)" fill-opacity="1">
<use xlink:href="#glyph-0-15" x="479.601562" y="200.53125"/>
<use xlink:href="#glyph-0-12" x="488.139063" y="200.53125"/>
<use xlink:href="#glyph-0-10" x="491.695312" y="200.53125"/>
<use xlink:href="#glyph-0-6" x="498.814062" y="200.53125"/>
<use xlink:href="#glyph-0-14" x="503.076562" y="200.53125"/>
<use xlink:href="#glyph-0-27" x="506.632812" y="200.53125"/>
<use xlink:href="#glyph-0-10" x="518.714062" y="200.53125"/>
<use xlink:href="#glyph-0-6" x="525.832812" y="200.53125"/>
<use xlink:href="#glyph-0-13" x="530.095312" y="200.53125"/>
</g>
<g fill="rgb(0%, 0%, 0%)" fill-opacity="1">
<use xlink:href="#glyph-1-0" x="220.519531" y="218.664062"/>
<use xlink:href="#glyph-1-1" x="224.964844" y="218.664062"/>
<use xlink:href="#glyph-1-2" x="232.964844" y="218.664062"/>
<use xlink:href="#glyph-1-3" x="237.410156" y="218.664062"/>
<use xlink:href="#glyph-1-4" x="246.308594" y="218.664062"/>
<use xlink:href="#glyph-1-5" x="251.636719" y="218.664062"/>
<use xlink:href="#glyph-1-6" x="260.535156" y="218.664062"/>
<use xlink:href="#glyph-1-4" x="269.433594" y="218.664062"/>
<use xlink:href="#glyph-1-7" x="274.761719" y="218.664062"/>
<use xlink:href="#glyph-1-5" x="283.660156" y="218.664062"/>
<use xlink:href="#glyph-1-4" x="292.558594" y="218.664062"/>
<use xlink:href="#glyph-1-8" x="297.886719" y="218.664062"/>
<use xlink:href="#glyph-1-2" x="303.214844" y="218.664062"/>
<use xlink:href="#glyph-1-9" x="307.660156" y="218.664062"/>
<use xlink:href="#glyph-1-2" x="311.214844" y="218.664062"/>
<use xlink:href="#glyph-1-10" x="315.660156" y="218.664062"/>
<use xlink:href="#glyph-1-5" x="319.214844" y="218.664062"/>
<use xlink:href="#glyph-1-11" x="328.113281" y="218.664062"/>
<use xlink:href="#glyph-1-12" x="332.558594" y="218.664062"/>
<use xlink:href="#glyph-1-13" x="337.003906" y="218.664062"/>
<use xlink:href="#glyph-1-14" x="345.902344" y="218.664062"/>
<use xlink:href="#glyph-1-6" x="359.230469" y="218.664062"/>
<use xlink:href="#glyph-1-15" x="368.128906" y="218.664062"/>
<use xlink:href="#glyph-1-16" x="377.027344" y="218.664062"/>
<use xlink:href="#glyph-1-2" x="385.925781" y="218.664062"/>
<use xlink:href="#glyph-1-17" x="390.371094" y="218.664062"/>
</g>
<g fill="rgb(0%, 0%, 0%)" fill-opacity="1">
<use xlink:href="#glyph-2-0" x="19.421875" y="122.765625"/>
<use xlink:href="#glyph-2-1" x="19.421875" y="113.867188"/>
<use xlink:href="#glyph-2-2" x="19.421875" y="100.539062"/>
<use xlink:href="#glyph-2-3" x="19.421875" y="91.640625"/>
<use xlink:href="#glyph-2-4" x="19.421875" y="82.742188"/>
<use xlink:href="#glyph-2-5" x="19.421875" y="73.84375"/>
</g>
</svg>
